M48
; DRILL file {KiCad 5.1.10-88a1d61d58~90~ubuntu20.04.1} date Tue Feb  8 14:50:39 2022
; FORMAT={-:-/ absolute / metric / decimal}
; #@! TF.CreationDate,2022-02-08T14:50:39+02:00
; #@! TF.GenerationSoftware,Kicad,Pcbnew,5.1.10-88a1d61d58~90~ubuntu20.04.1
; #@! TF.FileFunction,Plated,1,2,PTH
FMAT,2
METRIC
T1C0.300
T2C0.800
T3C0.813
T4C1.000
T5C1.300
T6C1.500
T7C4.100
%
G90
G05
T1
X87.501Y-128.152
X89.408Y-101.092
X90.17Y-114.3
X90.677Y-126.319
X90.932Y-120.904
X91.762Y-128.101
X92.435Y-133.581
X94.234Y-92.456
X94.8Y-70.6
X95.1Y-44.2
X95.141Y-125.741
X95.25Y-98.806
X95.504Y-47.498
X96.05Y-67.806
X96.1Y-51.39
X96.7Y-67.8
X96.9Y-44.966
X96.9Y-48.8
X98.999Y-126.216
X99.446Y-127.058
X100.4Y-50.046
X100.4Y-68.8
X101.05Y-53.93
X101.063Y-128.059
X102.117Y-57.701
X102.642Y-60.241
X102.826Y-68.77
X103.1Y-67.9
X103.167Y-62.781
X103.491Y-128.821
X103.692Y-64.288
X103.857Y-134.663
X104.217Y-65.374
X104.742Y-67.229
X104.746Y-130.218
X104.937Y-124.249
X105.328Y-67.072
X105.6Y-51.4
X105.6Y-65.2
X105.664Y-86.36
X105.7Y-56.7
X105.7Y-44.0
X105.7Y-59.0
X105.7Y-61.9
X105.7Y-41.6
X105.7Y-54.2
X105.733Y-63.957
X105.762Y-133.012
X107.032Y-137.203
X108.966Y-82.296
X109.191Y-132.631
X109.755Y-125.986
X109.826Y-98.976
X109.982Y-45.595
X110.034Y-128.12
X110.144Y-136.187
X110.498Y-66.794
X110.498Y-76.606
X110.498Y-83.796
X110.498Y-102.592
X110.588Y-59.606
X110.715Y-40.937
X111.252Y-64.873
X111.252Y-83.407
X111.252Y-96.012
X111.252Y-102.33
X111.252Y-124.365
X111.444Y-131.937
X111.56Y-45.595
X111.828Y-89.501
X111.902Y-75.176
X111.902Y-88.498
X111.922Y-51.605
X111.922Y-70.655
X111.922Y-109.009
X111.959Y-122.729
X112.182Y-124.151
X113.001Y-89.768
X113.255Y-81.577
X113.636Y-65.829
X114.271Y-75.608
X115.224Y-57.637
X115.287Y-113.771
X115.47Y-44.452
X115.47Y-63.488
X115.47Y-82.552
X115.47Y-101.602
X116.471Y-44.513
X116.471Y-63.549
X116.471Y-82.613
X116.493Y-101.706
X116.911Y-132.705
X117.319Y-119.931
X117.905Y-120.463
X118.674Y-53.861
X118.674Y-72.897
X118.674Y-91.961
X118.674Y-111.011
X120.096Y-122.108
X120.93Y-121.823
X122.526Y-42.461
X123.288Y-120.04
X124.602Y-44.592
X124.602Y-63.629
X124.602Y-82.692
X124.602Y-101.742
X125.117Y-96.867
X125.664Y-44.45
X125.664Y-63.486
X125.664Y-82.55
X125.664Y-101.6
X127.463Y-67.047
X127.463Y-86.11
X127.463Y-105.16
X128.14Y-98.7
X128.241Y-60.586
X128.241Y-79.646
X128.705Y-49.21
X128.749Y-128.948
X130.003Y-44.454
X130.003Y-63.491
X130.003Y-82.554
X130.003Y-101.604
X130.003Y-120.654
X130.019Y-117.75
X130.506Y-49.252
X130.506Y-52.919
X130.506Y-68.288
X130.506Y-71.956
X130.506Y-87.352
X130.506Y-91.019
X130.506Y-106.402
X130.506Y-110.069
X130.506Y-125.452
X130.506Y-129.119
X131.797Y-116.375
X132.592Y-49.204
X132.592Y-68.24
X132.592Y-87.304
X132.592Y-106.354
X132.592Y-125.404
X133.575Y-39.921
X134.52Y-42.039
X134.52Y-61.075
X134.52Y-80.139
X134.52Y-99.189
X134.52Y-118.239
X135.473Y-99.223
X135.473Y-118.273
X135.48Y-42.08
X135.543Y-80.243
X135.55Y-61.187
X137.674Y-51.361
X137.674Y-70.397
X137.674Y-89.461
X137.674Y-108.511
X137.674Y-127.561
X141.957Y-115.74
X143.6Y-42.195
X143.608Y-61.184
X143.608Y-80.247
X143.63Y-99.315
X143.678Y-118.359
X143.989Y-44.211
X143.989Y-63.248
X143.989Y-82.311
X143.989Y-101.361
X144.526Y-42.088
X144.526Y-61.124
X144.526Y-80.188
X144.526Y-99.238
X144.526Y-118.288
X149.008Y-126.667
X149.138Y-99.329
X149.217Y-42.101
X149.266Y-80.145
X149.309Y-61.045
X149.514Y-115.105
X149.606Y-46.752
X149.606Y-50.419
X149.606Y-65.788
X149.606Y-69.456
X149.606Y-84.852
X149.606Y-88.519
X149.606Y-103.902
X149.606Y-107.569
X149.606Y-122.952
X149.606Y-126.619
X149.768Y-36.746
X150.844Y-113.705
X151.412Y-118.392
X151.692Y-46.704
X151.692Y-65.74
X151.692Y-84.804
X151.692Y-103.854
X151.692Y-122.904
X153.61Y-39.624
X153.61Y-58.66
X153.61Y-77.724
X153.61Y-96.774
X153.61Y-115.824
X154.526Y-39.621
X154.526Y-58.657
X154.526Y-77.721
X154.526Y-96.771
X154.526Y-115.821
X155.165Y-113.534
X156.774Y-48.861
X156.774Y-67.897
X156.774Y-86.961
X156.774Y-125.061
X157.024Y-106.011
X160.753Y-37.325
X162.65Y-115.83
X162.65Y-39.63
X162.65Y-58.666
X162.65Y-77.73
X162.65Y-96.78
X163.845Y-39.638
X163.845Y-58.674
X163.845Y-77.738
X163.845Y-96.788
X163.845Y-115.838
X168.119Y-116.756
X168.119Y-124.122
X168.606Y-49.252
X168.606Y-52.919
X168.606Y-68.288
X168.606Y-71.956
X168.606Y-87.352
X168.606Y-91.019
X168.606Y-106.402
X168.606Y-110.069
X168.606Y-125.452
X168.606Y-129.119
X168.881Y-62.418
X168.907Y-43.382
X168.907Y-81.482
X168.907Y-100.532
X169.58Y-112.946
X170.485Y-120.655
X170.692Y-49.204
X170.692Y-68.24
X170.692Y-87.304
X170.692Y-106.354
X170.692Y-125.404
X172.183Y-39.992
X172.499Y-41.91
X172.499Y-60.947
X172.499Y-80.01
X172.499Y-99.06
X172.499Y-118.11
X173.577Y-61.105
X173.577Y-118.269
X173.647Y-42.139
X173.647Y-80.239
X173.647Y-99.289
X175.774Y-51.361
X175.774Y-70.397
X175.774Y-89.461
X175.774Y-108.511
X175.774Y-127.561
X179.93Y-117.073
X181.7Y-42.214
X181.7Y-80.314
X181.708Y-61.257
X181.729Y-99.378
X181.729Y-118.428
X182.026Y-63.162
X182.089Y-44.112
X182.089Y-101.325
X182.216Y-82.311
X182.782Y-42.164
X182.782Y-61.2
X182.782Y-80.264
X182.782Y-99.314
X182.782Y-118.364
X186.915Y-123.106
X187.706Y-54.152
X187.706Y-57.819
X187.706Y-73.188
X187.706Y-76.855
X187.706Y-92.252
X187.706Y-95.919
X187.706Y-111.302
X187.706Y-114.969
X187.804Y-115.994
X188.312Y-130.218
X188.445Y-47.801
X188.445Y-67.006
X188.445Y-86.238
X188.445Y-105.255
X189.792Y-54.104
X189.792Y-73.141
X189.792Y-92.204
X189.792Y-111.254
X189.963Y-120.185
X191.36Y-120.693
X191.548Y-46.76
X191.548Y-65.796
X191.548Y-84.86
X191.548Y-103.91
X192.623Y-46.914
X192.623Y-65.951
X192.623Y-85.014
X192.75Y-104.183
X193.773Y-125.9
X194.662Y-132.123
X194.874Y-56.261
X194.874Y-75.297
X194.874Y-94.361
X194.874Y-113.411
X198.917Y-44.818
X200.762Y-47.044
X200.762Y-66.08
X200.762Y-85.144
X200.762Y-104.194
X201.876Y-47.038
X201.876Y-66.074
X201.876Y-85.138
X201.876Y-104.188
X202.79Y-117.518
X203.425Y-120.693
X203.425Y-123.106
X204.441Y-125.392
X204.822Y-130.218
X206.556Y-50.167
X206.556Y-69.203
X206.556Y-88.267
X206.556Y-107.317
X206.615Y-54.152
X206.615Y-57.819
X206.615Y-73.188
X206.615Y-76.855
X206.615Y-92.252
X206.615Y-95.919
X206.615Y-111.302
X206.615Y-114.969
X206.854Y-123.233
X207.168Y-129.523
X208.892Y-54.104
X208.892Y-73.141
X208.892Y-92.204
X208.892Y-111.254
X210.566Y-46.78
X210.566Y-65.816
X210.566Y-84.88
X210.566Y-103.93
X211.722Y-47.016
X211.722Y-66.053
X211.722Y-85.116
X211.744Y-104.166
X212.315Y-53.383
X212.95Y-126.154
X213.974Y-56.261
X213.974Y-75.297
X213.974Y-94.361
X213.974Y-113.411
X214.093Y-126.027
X216.125Y-131.996
X218.919Y-43.731
X219.3Y-127.043
X219.807Y-47.087
X219.807Y-66.124
X219.807Y-85.187
X219.807Y-104.237
X220.126Y-68.178
X220.189Y-87.292
X220.218Y-120.396
X220.253Y-49.128
X220.602Y-123.201
X220.726Y-118.11
X220.824Y-46.99
X220.824Y-66.026
X220.824Y-85.09
X220.824Y-104.14
X222.475Y-46.271
X222.504Y-127.0
X223.237Y-115.74
X223.266Y-119.126
X223.774Y-87.122
X223.872Y-130.091
X224.028Y-115.316
X224.253Y-61.257
X224.536Y-127.0
X226.793Y-62.019
X227.301Y-56.177
X227.301Y-83.736
X227.301Y-101.643
X227.301Y-127.551
X227.555Y-86.149
X227.555Y-112.057
X227.811Y-125.009
X227.938Y-119.805
X228.063Y-78.021
X228.571Y-135.933
X228.825Y-49.319
X229.451Y-68.505
X229.451Y-95.302
X229.451Y-104.446
X230.222Y-121.836
X230.603Y-66.083
X231.365Y-78.529
X231.492Y-106.723
X231.873Y-57.574
X232.0Y-126.281
X232.127Y-69.893
X232.156Y-120.396
X232.889Y-83.736
X233.143Y-131.742
X236.191Y-120.693
X237.181Y-99.256
X237.744Y-121.412
X237.969Y-84.117
X238.223Y-127.043
X239.239Y-114.343
X239.268Y-123.19
X239.747Y-121.455
X240.763Y-45.509
X241.271Y-135.425
X241.525Y-80.307
X242.627Y-107.825
X242.75Y-130.263
X242.922Y-69.639
T2
X107.1Y-116.53
X108.95Y-116.53
T3
X89.887Y-39.159
X89.887Y-44.239
X92.18Y-41.23
X92.18Y-43.77
X92.18Y-46.31
X92.18Y-48.85
X92.18Y-51.39
X92.18Y-53.93
X92.18Y-56.47
X92.18Y-59.01
X92.18Y-61.55
X92.18Y-64.09
X92.18Y-66.63
X92.18Y-69.17
X93.479Y-42.426
X93.479Y-44.966
X93.479Y-47.506
X93.479Y-50.046
X93.479Y-52.586
X93.479Y-55.126
X93.479Y-57.666
X93.479Y-60.206
X93.479Y-62.746
X93.479Y-65.286
X93.479Y-67.826
X93.479Y-70.366
X95.983Y-38.905
X96.7Y-74.6
X99.24Y-74.6
X101.063Y-38.905
X101.78Y-74.6
X104.32Y-74.6
X107.42Y-41.23
X107.42Y-43.77
X107.42Y-46.31
X107.42Y-48.85
X107.42Y-51.39
X107.42Y-53.93
X107.42Y-56.47
X107.42Y-59.01
X107.42Y-61.55
X107.42Y-64.09
X107.42Y-66.63
X107.42Y-69.17
X108.458Y-77.47
X108.458Y-80.01
X108.719Y-42.426
X108.719Y-44.966
X108.719Y-47.506
X108.719Y-50.046
X108.719Y-52.586
X108.719Y-55.126
X108.719Y-57.666
X108.719Y-60.206
X108.719Y-62.746
X108.719Y-65.286
X108.719Y-67.826
X108.719Y-70.366
T4
X89.528Y-106.212
X89.528Y-108.712
X89.528Y-111.212
X104.028Y-106.212
X104.028Y-111.212
X107.725Y-106.07
X107.725Y-108.61
X107.725Y-111.15
X107.725Y-113.69
X108.458Y-83.82
X108.458Y-86.36
X108.458Y-88.9
X108.458Y-91.44
X108.458Y-93.98
T5
X93.726Y-80.316
X93.726Y-86.816
T7
X103.0Y-119.0
X130.375Y-95.853
X130.527Y-57.574
X206.0Y-61.5
X206.0Y-100.0
X235.508Y-81.044
X239.064Y-117.874
T4
G00X91.188Y-89.594
M15
G01X91.688Y-89.594
M16
G05
G00X91.188Y-95.544
M15
G01X91.688Y-95.544
M16
G05
G00X94.188Y-89.594
M15
G01X94.688Y-89.594
M16
G05
G00X94.188Y-95.544
M15
G01X94.688Y-95.544
M16
G05
G00X98.188Y-89.594
M15
G01X98.688Y-89.594
M16
G05
G00X98.188Y-95.544
M15
G01X98.688Y-95.544
M16
G05
G00X99.688Y-91.344
M15
G01X100.188Y-91.344
M16
G05
G00X99.688Y-93.794
M15
G01X100.188Y-93.794
M16
G05
T6
G00X96.378Y-103.112
M15
G01X97.678Y-103.112
M16
G05
G00X96.378Y-114.312
M15
G01X97.678Y-114.312
M16
G05
T0
M30
