%FSLAX45Y45*%
G04 Gerber Fmt 4.5, Leading zero omitted, Abs format (unit mm)*
G04 Created by KiCad (PCBNEW 5.1.10-88a1d61d58~90~ubuntu20.04.1) date 2022-01-18 13:39:48*
%MOMM*%
%LPD*%
G01*
G04 APERTURE LIST*
%TA.AperFunction,Profile*%
%ADD10C,0.100000*%
%TD*%
%TA.AperFunction,Profile*%
%ADD11C,0.150000*%
%TD*%
%ADD12C,0.200000*%
%ADD13C,0.300000*%
G04 APERTURE END LIST*
D10*
X22653912Y-11840664D02*
X23339712Y-11840664D01*
X22653912Y-11739064D02*
X23339712Y-11739064D01*
X23339712Y-11739064D02*
G75*
G02*
X23339712Y-11840664I0J-50800D01*
G01*
X22653912Y-11739064D02*
G75*
G02*
X22577712Y-11662864I0J76200D01*
G01*
X22577712Y-11916864D02*
G75*
G02*
X22653912Y-11840664I76200J0D01*
G01*
X22526912Y-4931864D02*
G75*
G02*
X22577712Y-4931864I25400J0D01*
G01*
X22577712Y-8343464D02*
G75*
G02*
X22526912Y-8343464I-25400J0D01*
G01*
X22526912Y-8843464D02*
G75*
G02*
X22577712Y-8843464I25400J0D01*
G01*
X22577712Y-11916864D02*
G75*
G02*
X22526912Y-11916864I-25400J0D01*
G01*
X22526912Y-12374064D02*
G75*
G02*
X22577712Y-12374064I25400J0D01*
G01*
X22577712Y-12932864D02*
X22577712Y-12374064D01*
X22526912Y-12374064D02*
X22526912Y-12932864D01*
X22577712Y-13504364D02*
X22577712Y-13415464D01*
X22526912Y-13504364D02*
X22526912Y-13415464D01*
X22577712Y-12932864D02*
G75*
G02*
X22526912Y-12932864I-25400J0D01*
G01*
D11*
X24482712Y-13504364D02*
X24482712Y-4792164D01*
D10*
X24228712Y-13758364D02*
X22831712Y-13758364D01*
X24482712Y-13504364D02*
G75*
G02*
X24228712Y-13758364I-254000J0D01*
G01*
X22577712Y-13504364D02*
G75*
G03*
X22831712Y-13758364I254000J0D01*
G01*
X22526912Y-13415464D02*
G75*
G02*
X22577712Y-13415464I25400J0D01*
G01*
X22272912Y-13758364D02*
X19466212Y-13758364D01*
X22526912Y-13504364D02*
G75*
G02*
X22272912Y-13758364I-254000J0D01*
G01*
X22577712Y-11662864D02*
X22577712Y-8843464D01*
X22526912Y-8843464D02*
X22526912Y-11916864D01*
X22577712Y-8343464D02*
X22577712Y-6024064D01*
X22526912Y-6024064D02*
G75*
G02*
X22577712Y-6024064I25400J0D01*
G01*
X22526912Y-6024064D02*
X22526912Y-8343464D01*
X22577712Y-5274764D02*
X22577712Y-4931864D01*
X22526912Y-4931864D02*
X22526912Y-5274764D01*
X22577712Y-5274764D02*
G75*
G02*
X22526912Y-5274764I-25400J0D01*
G01*
D11*
X24038212Y-4347664D02*
G75*
G02*
X24482712Y-4792164I0J-444500D01*
G01*
X22670676Y-4347664D02*
X24038212Y-4347664D01*
D10*
X22581776Y-4436564D02*
G75*
G02*
X22670676Y-4347664I88900J0D01*
G01*
X22581776Y-4436564D02*
G75*
G02*
X22522848Y-4436564I-29464J0D01*
G01*
X22447591Y-4344339D02*
G75*
G02*
X22522848Y-4436564I-26343J-98314D01*
G01*
X13815413Y-13400000D02*
X9390000Y-14675000D01*
X8919368Y-3734881D02*
X8942585Y-3732540D01*
X8897744Y-3741594D02*
X8919368Y-3734881D01*
X14900000Y-3500000D02*
X17095000Y-3500000D01*
X8827526Y-11440000D02*
X8827386Y-3847743D01*
X19466212Y-13758364D02*
X18750000Y-13400000D01*
X9290000Y-14650000D02*
X9335000Y-14665000D01*
X8215000Y-12790000D02*
X8210000Y-12730000D01*
X9335000Y-14665000D02*
X9390000Y-14675000D01*
X8820000Y-11505000D02*
X8800000Y-11565000D01*
X8210000Y-12730000D02*
X8210000Y-12690000D01*
X8210000Y-12690000D02*
X8220000Y-12640000D01*
X8230000Y-12840000D02*
X8215000Y-12790000D01*
X8827526Y-11440000D02*
X8820000Y-11505000D01*
X14900000Y-3500000D02*
X8942585Y-3732540D01*
X13815413Y-13400000D02*
X18750000Y-13400000D01*
X9255000Y-14620000D02*
X9290000Y-14650000D01*
X8847059Y-3783333D02*
X8861126Y-3766283D01*
X8827386Y-3847743D02*
X8829726Y-3824526D01*
X8836438Y-3802901D02*
X8847059Y-3783333D01*
X8220000Y-12640000D02*
X8800000Y-11565000D01*
X8878175Y-3752216D02*
X8897744Y-3741594D01*
X8861126Y-3766283D02*
X8878175Y-3752216D01*
X8829726Y-3824526D02*
X8836438Y-3802901D01*
X17095000Y-3500000D02*
X22447544Y-4344515D01*
X9255000Y-14620000D02*
X8230000Y-12840000D01*
D12*
X22532627Y-4607379D02*
X22571997Y-4646749D01*
X22571997Y-4607379D02*
X22532627Y-4646749D01*
X22532627Y-4708979D02*
X22571997Y-4748349D01*
X22571997Y-4708979D02*
X22532627Y-4748349D01*
X22532627Y-4810579D02*
X22571997Y-4849949D01*
X22571997Y-4810579D02*
X22532627Y-4849949D01*
X22532627Y-5420179D02*
X22571997Y-5459549D01*
X22571997Y-5420179D02*
X22532627Y-5459549D01*
X22532627Y-5521779D02*
X22571997Y-5561149D01*
X22571997Y-5521779D02*
X22532627Y-5561149D01*
X22532627Y-5623379D02*
X22571997Y-5662749D01*
X22571997Y-5623379D02*
X22532627Y-5662749D01*
X22532627Y-5724979D02*
X22571997Y-5764349D01*
X22571997Y-5724979D02*
X22532627Y-5764349D01*
X22532627Y-5826579D02*
X22571997Y-5865949D01*
X22571997Y-5826579D02*
X22532627Y-5865949D01*
X22532627Y-8417379D02*
X22571997Y-8456749D01*
X22571997Y-8417379D02*
X22532627Y-8456749D01*
X22532627Y-8620579D02*
X22571997Y-8659949D01*
X22571997Y-8620579D02*
X22532627Y-8659949D01*
X22532627Y-8722179D02*
X22571997Y-8761549D01*
X22571997Y-8722179D02*
X22532627Y-8761549D01*
X22532627Y-11998779D02*
X22571997Y-12038149D01*
X22571997Y-11998779D02*
X22532627Y-12038149D01*
X22532627Y-12100379D02*
X22571997Y-12139749D01*
X22571997Y-12100379D02*
X22532627Y-12139749D01*
X22532627Y-12252779D02*
X22571997Y-12292149D01*
X22571997Y-12252779D02*
X22532627Y-12292149D01*
X22532627Y-13014779D02*
X22571997Y-13054149D01*
X22571997Y-13014779D02*
X22532627Y-13054149D01*
X22532627Y-13167179D02*
X22571997Y-13206549D01*
X22571997Y-13167179D02*
X22532627Y-13206549D01*
X22532627Y-13294179D02*
X22571997Y-13333549D01*
X22571997Y-13294179D02*
X22532627Y-13333549D01*
X23497827Y-11770179D02*
X23537197Y-11809549D01*
X23537197Y-11770179D02*
X23497827Y-11809549D01*
X24234427Y-11770179D02*
X24273797Y-11809549D01*
X24273797Y-11770179D02*
X24234427Y-11809549D01*
X24386827Y-11770179D02*
X24426197Y-11809549D01*
X24426197Y-11770179D02*
X24386827Y-11809549D01*
X9823731Y-12677935D02*
G75*
G03*
X9823731Y-12677935I-50000J0D01*
G01*
X10345731Y-13582065D02*
G75*
G03*
X10345731Y-13582065I-50000J0D01*
G01*
X11197083Y-12569415D02*
G75*
G03*
X11197083Y-12569415I-50000J0D01*
G01*
X11583000Y-4580000D02*
G75*
G03*
X11583000Y-4580000I-50000J0D01*
G01*
X11583000Y-6490000D02*
G75*
G03*
X11583000Y-6490000I-50000J0D01*
G01*
X11583000Y-8390000D02*
G75*
G03*
X11583000Y-8390000I-50000J0D01*
G01*
X11583000Y-10295000D02*
G75*
G03*
X11583000Y-10295000I-50000J0D01*
G01*
X12205509Y-12299208D02*
G75*
G03*
X12205509Y-12299208I-50000J0D01*
G01*
X12627000Y-4580000D02*
G75*
G03*
X12627000Y-4580000I-50000J0D01*
G01*
X12627000Y-6490000D02*
G75*
G03*
X12627000Y-6490000I-50000J0D01*
G01*
X12627000Y-8390000D02*
G75*
G03*
X12627000Y-8390000I-50000J0D01*
G01*
X12627000Y-10295000D02*
G75*
G03*
X12627000Y-10295000I-50000J0D01*
G01*
X13488000Y-4330000D02*
G75*
G03*
X13488000Y-4330000I-50000J0D01*
G01*
X13488000Y-6235000D02*
G75*
G03*
X13488000Y-6235000I-50000J0D01*
G01*
X13488000Y-8140000D02*
G75*
G03*
X13488000Y-8140000I-50000J0D01*
G01*
X13488000Y-10045000D02*
G75*
G03*
X13488000Y-10045000I-50000J0D01*
G01*
X13488000Y-11950000D02*
G75*
G03*
X13488000Y-11950000I-50000J0D01*
G01*
X14532000Y-4330000D02*
G75*
G03*
X14532000Y-4330000I-50000J0D01*
G01*
X14532000Y-6235000D02*
G75*
G03*
X14532000Y-6235000I-50000J0D01*
G01*
X14532000Y-8140000D02*
G75*
G03*
X14532000Y-8140000I-50000J0D01*
G01*
X14532000Y-10045000D02*
G75*
G03*
X14532000Y-10045000I-50000J0D01*
G01*
X14532000Y-11950000D02*
G75*
G03*
X14532000Y-11950000I-50000J0D01*
G01*
X15393000Y-4080000D02*
G75*
G03*
X15393000Y-4080000I-50000J0D01*
G01*
X15393000Y-5985000D02*
G75*
G03*
X15393000Y-5985000I-50000J0D01*
G01*
X15393000Y-7890000D02*
G75*
G03*
X15393000Y-7890000I-50000J0D01*
G01*
X15393000Y-9795000D02*
G75*
G03*
X15393000Y-9795000I-50000J0D01*
G01*
X15393000Y-11700000D02*
G75*
G03*
X15393000Y-11700000I-50000J0D01*
G01*
X16437000Y-4080000D02*
G75*
G03*
X16437000Y-4080000I-50000J0D01*
G01*
X16437000Y-5985000D02*
G75*
G03*
X16437000Y-5985000I-50000J0D01*
G01*
X16437000Y-7890000D02*
G75*
G03*
X16437000Y-7890000I-50000J0D01*
G01*
X16437000Y-9795000D02*
G75*
G03*
X16437000Y-9795000I-50000J0D01*
G01*
X16437000Y-11700000D02*
G75*
G03*
X16437000Y-11700000I-50000J0D01*
G01*
X17298000Y-4330000D02*
G75*
G03*
X17298000Y-4330000I-50000J0D01*
G01*
X17298000Y-6235000D02*
G75*
G03*
X17298000Y-6235000I-50000J0D01*
G01*
X17298000Y-8140000D02*
G75*
G03*
X17298000Y-8140000I-50000J0D01*
G01*
X17298000Y-10045000D02*
G75*
G03*
X17298000Y-10045000I-50000J0D01*
G01*
X17298000Y-11950000D02*
G75*
G03*
X17298000Y-11950000I-50000J0D01*
G01*
X18342000Y-4330000D02*
G75*
G03*
X18342000Y-4330000I-50000J0D01*
G01*
X18342000Y-6235000D02*
G75*
G03*
X18342000Y-6235000I-50000J0D01*
G01*
X18342000Y-8140000D02*
G75*
G03*
X18342000Y-8140000I-50000J0D01*
G01*
X18342000Y-10045000D02*
G75*
G03*
X18342000Y-10045000I-50000J0D01*
G01*
X18342000Y-11950000D02*
G75*
G03*
X18342000Y-11950000I-50000J0D01*
G01*
X19203000Y-4820000D02*
G75*
G03*
X19203000Y-4820000I-50000J0D01*
G01*
X19203000Y-6725000D02*
G75*
G03*
X19203000Y-6725000I-50000J0D01*
G01*
X19203000Y-8630000D02*
G75*
G03*
X19203000Y-8630000I-50000J0D01*
G01*
X19203000Y-10535000D02*
G75*
G03*
X19203000Y-10535000I-50000J0D01*
G01*
X19203000Y-12440000D02*
G75*
G03*
X19203000Y-12440000I-50000J0D01*
G01*
X20247000Y-4820000D02*
G75*
G03*
X20247000Y-4820000I-50000J0D01*
G01*
X20247000Y-6725000D02*
G75*
G03*
X20247000Y-6725000I-50000J0D01*
G01*
X20247000Y-8630000D02*
G75*
G03*
X20247000Y-8630000I-50000J0D01*
G01*
X20247000Y-10535000D02*
G75*
G03*
X20247000Y-10535000I-50000J0D01*
G01*
X20247000Y-12440000D02*
G75*
G03*
X20247000Y-12440000I-50000J0D01*
G01*
X21108000Y-4820000D02*
G75*
G03*
X21108000Y-4820000I-50000J0D01*
G01*
X21108000Y-6725000D02*
G75*
G03*
X21108000Y-6725000I-50000J0D01*
G01*
X21108000Y-8630000D02*
G75*
G03*
X21108000Y-8630000I-50000J0D01*
G01*
X21108000Y-10535000D02*
G75*
G03*
X21108000Y-10535000I-50000J0D01*
G01*
X21108000Y-12440000D02*
G75*
G03*
X21108000Y-12440000I-50000J0D01*
G01*
X22152000Y-4820000D02*
G75*
G03*
X22152000Y-4820000I-50000J0D01*
G01*
X22152000Y-6725000D02*
G75*
G03*
X22152000Y-6725000I-50000J0D01*
G01*
X22152000Y-8630000D02*
G75*
G03*
X22152000Y-8630000I-50000J0D01*
G01*
X22152000Y-10535000D02*
G75*
G03*
X22152000Y-10535000I-50000J0D01*
G01*
X22152000Y-12440000D02*
G75*
G03*
X22152000Y-12440000I-50000J0D01*
G01*
X23013000Y-12440000D02*
G75*
G03*
X23013000Y-12440000I-50000J0D01*
G01*
X23115000Y-5670500D02*
G75*
G03*
X23115000Y-5670500I-50000J0D01*
G01*
X23115000Y-6714500D02*
G75*
G03*
X23115000Y-6714500I-50000J0D01*
G01*
X23115000Y-9480500D02*
G75*
G03*
X23115000Y-9480500I-50000J0D01*
G01*
X23115000Y-10524500D02*
G75*
G03*
X23115000Y-10524500I-50000J0D01*
G01*
X24057000Y-12440000D02*
G75*
G03*
X24057000Y-12440000I-50000J0D01*
G01*
X8950000Y-8505000D02*
X8950000Y-8625000D01*
X8890000Y-8565000D02*
X9010000Y-8565000D01*
X8950000Y-8680000D02*
X8950000Y-8800000D01*
X8890000Y-8740000D02*
X9010000Y-8740000D01*
X9650000Y-8505000D02*
X9650000Y-8625000D01*
X9590000Y-8565000D02*
X9710000Y-8565000D01*
X9650000Y-8680000D02*
X9650000Y-8800000D01*
X9590000Y-8740000D02*
X9710000Y-8740000D01*
X9459640Y-12927326D02*
X9459640Y-12800046D01*
X9332360Y-12800046D01*
X9332360Y-12927326D01*
X9459640Y-12927326D01*
X10009640Y-13879954D02*
X10009640Y-13752674D01*
X9882360Y-13752674D01*
X9882360Y-13879954D01*
X10009640Y-13879954D01*
X11292381Y-13045991D02*
X11292381Y-12918710D01*
X11165101Y-12918710D01*
X11165101Y-13045991D01*
X11292381Y-13045991D01*
X11568640Y-5063640D02*
X11568640Y-4936360D01*
X11441360Y-4936360D01*
X11441360Y-5063640D01*
X11568640Y-5063640D01*
X11568640Y-6973640D02*
X11568640Y-6846360D01*
X11441360Y-6846360D01*
X11441360Y-6973640D01*
X11568640Y-6973640D01*
X11568640Y-8873640D02*
X11568640Y-8746360D01*
X11441360Y-8746360D01*
X11441360Y-8873640D01*
X11568640Y-8873640D01*
X11568640Y-10778640D02*
X11568640Y-10651360D01*
X11441360Y-10651360D01*
X11441360Y-10778640D01*
X11568640Y-10778640D01*
X12354899Y-12761290D02*
X12354899Y-12634009D01*
X12227619Y-12634009D01*
X12227619Y-12761290D01*
X12354899Y-12761290D01*
X12668640Y-5063640D02*
X12668640Y-4936360D01*
X12541360Y-4936360D01*
X12541360Y-5063640D01*
X12668640Y-5063640D01*
X12668640Y-6973640D02*
X12668640Y-6846360D01*
X12541360Y-6846360D01*
X12541360Y-6973640D01*
X12668640Y-6973640D01*
X12668640Y-8873640D02*
X12668640Y-8746360D01*
X12541360Y-8746360D01*
X12541360Y-8873640D01*
X12668640Y-8873640D01*
X12668640Y-10778640D02*
X12668640Y-10651360D01*
X12541360Y-10651360D01*
X12541360Y-10778640D01*
X12668640Y-10778640D01*
X13473640Y-4813640D02*
X13473640Y-4686360D01*
X13346360Y-4686360D01*
X13346360Y-4813640D01*
X13473640Y-4813640D01*
X13473640Y-6718640D02*
X13473640Y-6591360D01*
X13346360Y-6591360D01*
X13346360Y-6718640D01*
X13473640Y-6718640D01*
X13473640Y-8623640D02*
X13473640Y-8496360D01*
X13346360Y-8496360D01*
X13346360Y-8623640D01*
X13473640Y-8623640D01*
X13473640Y-10528640D02*
X13473640Y-10401360D01*
X13346360Y-10401360D01*
X13346360Y-10528640D01*
X13473640Y-10528640D01*
X13473640Y-12433640D02*
X13473640Y-12306360D01*
X13346360Y-12306360D01*
X13346360Y-12433640D01*
X13473640Y-12433640D01*
X14573640Y-4813640D02*
X14573640Y-4686360D01*
X14446360Y-4686360D01*
X14446360Y-4813640D01*
X14573640Y-4813640D01*
X14573640Y-6718640D02*
X14573640Y-6591360D01*
X14446360Y-6591360D01*
X14446360Y-6718640D01*
X14573640Y-6718640D01*
X14573640Y-8623640D02*
X14573640Y-8496360D01*
X14446360Y-8496360D01*
X14446360Y-8623640D01*
X14573640Y-8623640D01*
X14573640Y-10528640D02*
X14573640Y-10401360D01*
X14446360Y-10401360D01*
X14446360Y-10528640D01*
X14573640Y-10528640D01*
X14573640Y-12433640D02*
X14573640Y-12306360D01*
X14446360Y-12306360D01*
X14446360Y-12433640D01*
X14573640Y-12433640D01*
X15378640Y-4563640D02*
X15378640Y-4436360D01*
X15251360Y-4436360D01*
X15251360Y-4563640D01*
X15378640Y-4563640D01*
X15378640Y-6468640D02*
X15378640Y-6341360D01*
X15251360Y-6341360D01*
X15251360Y-6468640D01*
X15378640Y-6468640D01*
X15378640Y-8373640D02*
X15378640Y-8246360D01*
X15251360Y-8246360D01*
X15251360Y-8373640D01*
X15378640Y-8373640D01*
X15378640Y-10278640D02*
X15378640Y-10151360D01*
X15251360Y-10151360D01*
X15251360Y-10278640D01*
X15378640Y-10278640D01*
X15378640Y-12183640D02*
X15378640Y-12056360D01*
X15251360Y-12056360D01*
X15251360Y-12183640D01*
X15378640Y-12183640D01*
X16478640Y-4563640D02*
X16478640Y-4436360D01*
X16351360Y-4436360D01*
X16351360Y-4563640D01*
X16478640Y-4563640D01*
X16478640Y-6468640D02*
X16478640Y-6341360D01*
X16351360Y-6341360D01*
X16351360Y-6468640D01*
X16478640Y-6468640D01*
X16478640Y-8373640D02*
X16478640Y-8246360D01*
X16351360Y-8246360D01*
X16351360Y-8373640D01*
X16478640Y-8373640D01*
X16478640Y-10278640D02*
X16478640Y-10151360D01*
X16351360Y-10151360D01*
X16351360Y-10278640D01*
X16478640Y-10278640D01*
X16478640Y-12183640D02*
X16478640Y-12056360D01*
X16351360Y-12056360D01*
X16351360Y-12183640D01*
X16478640Y-12183640D01*
X17283640Y-4813640D02*
X17283640Y-4686360D01*
X17156360Y-4686360D01*
X17156360Y-4813640D01*
X17283640Y-4813640D01*
X17283640Y-6718640D02*
X17283640Y-6591360D01*
X17156360Y-6591360D01*
X17156360Y-6718640D01*
X17283640Y-6718640D01*
X17283640Y-8623640D02*
X17283640Y-8496360D01*
X17156360Y-8496360D01*
X17156360Y-8623640D01*
X17283640Y-8623640D01*
X17283640Y-10528640D02*
X17283640Y-10401360D01*
X17156360Y-10401360D01*
X17156360Y-10528640D01*
X17283640Y-10528640D01*
X17283640Y-12433640D02*
X17283640Y-12306360D01*
X17156360Y-12306360D01*
X17156360Y-12433640D01*
X17283640Y-12433640D01*
X18383640Y-4813640D02*
X18383640Y-4686360D01*
X18256360Y-4686360D01*
X18256360Y-4813640D01*
X18383640Y-4813640D01*
X18383640Y-6718640D02*
X18383640Y-6591360D01*
X18256360Y-6591360D01*
X18256360Y-6718640D01*
X18383640Y-6718640D01*
X18383640Y-8623640D02*
X18383640Y-8496360D01*
X18256360Y-8496360D01*
X18256360Y-8623640D01*
X18383640Y-8623640D01*
X18383640Y-10528640D02*
X18383640Y-10401360D01*
X18256360Y-10401360D01*
X18256360Y-10528640D01*
X18383640Y-10528640D01*
X18383640Y-12433640D02*
X18383640Y-12306360D01*
X18256360Y-12306360D01*
X18256360Y-12433640D01*
X18383640Y-12433640D01*
X19188640Y-5303640D02*
X19188640Y-5176360D01*
X19061360Y-5176360D01*
X19061360Y-5303640D01*
X19188640Y-5303640D01*
X19188640Y-7208640D02*
X19188640Y-7081360D01*
X19061360Y-7081360D01*
X19061360Y-7208640D01*
X19188640Y-7208640D01*
X19188640Y-9113640D02*
X19188640Y-8986360D01*
X19061360Y-8986360D01*
X19061360Y-9113640D01*
X19188640Y-9113640D01*
X19188640Y-11018640D02*
X19188640Y-10891360D01*
X19061360Y-10891360D01*
X19061360Y-11018640D01*
X19188640Y-11018640D01*
X19188640Y-12923640D02*
X19188640Y-12796360D01*
X19061360Y-12796360D01*
X19061360Y-12923640D01*
X19188640Y-12923640D01*
X20288640Y-5303640D02*
X20288640Y-5176360D01*
X20161360Y-5176360D01*
X20161360Y-5303640D01*
X20288640Y-5303640D01*
X20288640Y-7208640D02*
X20288640Y-7081360D01*
X20161360Y-7081360D01*
X20161360Y-7208640D01*
X20288640Y-7208640D01*
X20288640Y-9113640D02*
X20288640Y-8986360D01*
X20161360Y-8986360D01*
X20161360Y-9113640D01*
X20288640Y-9113640D01*
X20288640Y-11018640D02*
X20288640Y-10891360D01*
X20161360Y-10891360D01*
X20161360Y-11018640D01*
X20288640Y-11018640D01*
X20288640Y-12923640D02*
X20288640Y-12796360D01*
X20161360Y-12796360D01*
X20161360Y-12923640D01*
X20288640Y-12923640D01*
X21093640Y-5303640D02*
X21093640Y-5176360D01*
X20966360Y-5176360D01*
X20966360Y-5303640D01*
X21093640Y-5303640D01*
X21093640Y-7208640D02*
X21093640Y-7081360D01*
X20966360Y-7081360D01*
X20966360Y-7208640D01*
X21093640Y-7208640D01*
X21093640Y-9113640D02*
X21093640Y-8986360D01*
X20966360Y-8986360D01*
X20966360Y-9113640D01*
X21093640Y-9113640D01*
X21093640Y-11018640D02*
X21093640Y-10891360D01*
X20966360Y-10891360D01*
X20966360Y-11018640D01*
X21093640Y-11018640D01*
X21093640Y-12923640D02*
X21093640Y-12796360D01*
X20966360Y-12796360D01*
X20966360Y-12923640D01*
X21093640Y-12923640D01*
X22193640Y-5303640D02*
X22193640Y-5176360D01*
X22066360Y-5176360D01*
X22066360Y-5303640D01*
X22193640Y-5303640D01*
X22193640Y-7208640D02*
X22193640Y-7081360D01*
X22066360Y-7081360D01*
X22066360Y-7208640D01*
X22193640Y-7208640D01*
X22193640Y-9113640D02*
X22193640Y-8986360D01*
X22066360Y-8986360D01*
X22066360Y-9113640D01*
X22193640Y-9113640D01*
X22193640Y-11018640D02*
X22193640Y-10891360D01*
X22066360Y-10891360D01*
X22066360Y-11018640D01*
X22193640Y-11018640D01*
X22193640Y-12923640D02*
X22193640Y-12796360D01*
X22066360Y-12796360D01*
X22066360Y-12923640D01*
X22193640Y-12923640D01*
X22998640Y-12923640D02*
X22998640Y-12796360D01*
X22871360Y-12796360D01*
X22871360Y-12923640D01*
X22998640Y-12923640D01*
X23548640Y-5706140D02*
X23548640Y-5578860D01*
X23421360Y-5578860D01*
X23421360Y-5706140D01*
X23548640Y-5706140D01*
X23548640Y-6806140D02*
X23548640Y-6678860D01*
X23421360Y-6678860D01*
X23421360Y-6806140D01*
X23548640Y-6806140D01*
X23548640Y-9516140D02*
X23548640Y-9388860D01*
X23421360Y-9388860D01*
X23421360Y-9516140D01*
X23548640Y-9516140D01*
X23548640Y-10616140D02*
X23548640Y-10488860D01*
X23421360Y-10488860D01*
X23421360Y-10616140D01*
X23548640Y-10616140D01*
X24098640Y-12923640D02*
X24098640Y-12796360D01*
X23971360Y-12796360D01*
X23971360Y-12923640D01*
X24098640Y-12923640D01*
X9100571Y-13241987D02*
X9250571Y-13091987D01*
X9100571Y-12941987D01*
X8950571Y-13091987D01*
X9100571Y-13241987D01*
X9160045Y-13785000D02*
X9310045Y-13635000D01*
X9160045Y-13485000D01*
X9010045Y-13635000D01*
X9160045Y-13785000D01*
X9600571Y-14108013D02*
X9750571Y-13958013D01*
X9600571Y-13808013D01*
X9450571Y-13958013D01*
X9600571Y-14108013D01*
X11372800Y-13476802D02*
X11522800Y-13326802D01*
X11372800Y-13176802D01*
X11222800Y-13326802D01*
X11372800Y-13476802D01*
X11555000Y-5520000D02*
X11705000Y-5370000D01*
X11555000Y-5220000D01*
X11405000Y-5370000D01*
X11555000Y-5520000D01*
X11555000Y-7430000D02*
X11705000Y-7280000D01*
X11555000Y-7130000D01*
X11405000Y-7280000D01*
X11555000Y-7430000D01*
X11555000Y-9330000D02*
X11705000Y-9180000D01*
X11555000Y-9030000D01*
X11405000Y-9180000D01*
X11555000Y-9330000D01*
X11555000Y-11235000D02*
X11705000Y-11085000D01*
X11555000Y-10935000D01*
X11405000Y-11085000D01*
X11555000Y-11235000D01*
X11912703Y-13559896D02*
X12062703Y-13409896D01*
X11912703Y-13259896D01*
X11762703Y-13409896D01*
X11912703Y-13559896D01*
X12055000Y-5740000D02*
X12205000Y-5590000D01*
X12055000Y-5440000D01*
X11905000Y-5590000D01*
X12055000Y-5740000D01*
X12055000Y-7650000D02*
X12205000Y-7500000D01*
X12055000Y-7350000D01*
X11905000Y-7500000D01*
X12055000Y-7650000D01*
X12055000Y-9550000D02*
X12205000Y-9400000D01*
X12055000Y-9250000D01*
X11905000Y-9400000D01*
X12055000Y-9550000D01*
X12055000Y-11455000D02*
X12205000Y-11305000D01*
X12055000Y-11155000D01*
X11905000Y-11305000D01*
X12055000Y-11455000D01*
X12338726Y-13217983D02*
X12488726Y-13067983D01*
X12338726Y-12917983D01*
X12188726Y-13067983D01*
X12338726Y-13217983D01*
X12555000Y-5520000D02*
X12705000Y-5370000D01*
X12555000Y-5220000D01*
X12405000Y-5370000D01*
X12555000Y-5520000D01*
X12555000Y-7430000D02*
X12705000Y-7280000D01*
X12555000Y-7130000D01*
X12405000Y-7280000D01*
X12555000Y-7430000D01*
X12555000Y-9330000D02*
X12705000Y-9180000D01*
X12555000Y-9030000D01*
X12405000Y-9180000D01*
X12555000Y-9330000D01*
X12555000Y-11235000D02*
X12705000Y-11085000D01*
X12555000Y-10935000D01*
X12405000Y-11085000D01*
X12555000Y-11235000D01*
X13460000Y-5270000D02*
X13610000Y-5120000D01*
X13460000Y-4970000D01*
X13310000Y-5120000D01*
X13460000Y-5270000D01*
X13460000Y-7175000D02*
X13610000Y-7025000D01*
X13460000Y-6875000D01*
X13310000Y-7025000D01*
X13460000Y-7175000D01*
X13460000Y-9080000D02*
X13610000Y-8930000D01*
X13460000Y-8780000D01*
X13310000Y-8930000D01*
X13460000Y-9080000D01*
X13460000Y-10985000D02*
X13610000Y-10835000D01*
X13460000Y-10685000D01*
X13310000Y-10835000D01*
X13460000Y-10985000D01*
X13460000Y-12890000D02*
X13610000Y-12740000D01*
X13460000Y-12590000D01*
X13310000Y-12740000D01*
X13460000Y-12890000D01*
X13960000Y-5490000D02*
X14110000Y-5340000D01*
X13960000Y-5190000D01*
X13810000Y-5340000D01*
X13960000Y-5490000D01*
X13960000Y-7395000D02*
X14110000Y-7245000D01*
X13960000Y-7095000D01*
X13810000Y-7245000D01*
X13960000Y-7395000D01*
X13960000Y-9300000D02*
X14110000Y-9150000D01*
X13960000Y-9000000D01*
X13810000Y-9150000D01*
X13960000Y-9300000D01*
X13960000Y-11205000D02*
X14110000Y-11055000D01*
X13960000Y-10905000D01*
X13810000Y-11055000D01*
X13960000Y-11205000D01*
X13960000Y-13110000D02*
X14110000Y-12960000D01*
X13960000Y-12810000D01*
X13810000Y-12960000D01*
X13960000Y-13110000D01*
X14460000Y-5270000D02*
X14610000Y-5120000D01*
X14460000Y-4970000D01*
X14310000Y-5120000D01*
X14460000Y-5270000D01*
X14460000Y-7175000D02*
X14610000Y-7025000D01*
X14460000Y-6875000D01*
X14310000Y-7025000D01*
X14460000Y-7175000D01*
X14460000Y-9080000D02*
X14610000Y-8930000D01*
X14460000Y-8780000D01*
X14310000Y-8930000D01*
X14460000Y-9080000D01*
X14460000Y-10985000D02*
X14610000Y-10835000D01*
X14460000Y-10685000D01*
X14310000Y-10835000D01*
X14460000Y-10985000D01*
X14460000Y-12890000D02*
X14610000Y-12740000D01*
X14460000Y-12590000D01*
X14310000Y-12740000D01*
X14460000Y-12890000D01*
X15365000Y-5020000D02*
X15515000Y-4870000D01*
X15365000Y-4720000D01*
X15215000Y-4870000D01*
X15365000Y-5020000D01*
X15365000Y-6925000D02*
X15515000Y-6775000D01*
X15365000Y-6625000D01*
X15215000Y-6775000D01*
X15365000Y-6925000D01*
X15365000Y-8830000D02*
X15515000Y-8680000D01*
X15365000Y-8530000D01*
X15215000Y-8680000D01*
X15365000Y-8830000D01*
X15365000Y-10735000D02*
X15515000Y-10585000D01*
X15365000Y-10435000D01*
X15215000Y-10585000D01*
X15365000Y-10735000D01*
X15365000Y-12640000D02*
X15515000Y-12490000D01*
X15365000Y-12340000D01*
X15215000Y-12490000D01*
X15365000Y-12640000D01*
X15865000Y-5240000D02*
X16015000Y-5090000D01*
X15865000Y-4940000D01*
X15715000Y-5090000D01*
X15865000Y-5240000D01*
X15865000Y-7145000D02*
X16015000Y-6995000D01*
X15865000Y-6845000D01*
X15715000Y-6995000D01*
X15865000Y-7145000D01*
X15865000Y-9050000D02*
X16015000Y-8900000D01*
X15865000Y-8750000D01*
X15715000Y-8900000D01*
X15865000Y-9050000D01*
X15865000Y-10955000D02*
X16015000Y-10805000D01*
X15865000Y-10655000D01*
X15715000Y-10805000D01*
X15865000Y-10955000D01*
X15865000Y-12860000D02*
X16015000Y-12710000D01*
X15865000Y-12560000D01*
X15715000Y-12710000D01*
X15865000Y-12860000D01*
X16365000Y-5020000D02*
X16515000Y-4870000D01*
X16365000Y-4720000D01*
X16215000Y-4870000D01*
X16365000Y-5020000D01*
X16365000Y-6925000D02*
X16515000Y-6775000D01*
X16365000Y-6625000D01*
X16215000Y-6775000D01*
X16365000Y-6925000D01*
X16365000Y-8830000D02*
X16515000Y-8680000D01*
X16365000Y-8530000D01*
X16215000Y-8680000D01*
X16365000Y-8830000D01*
X16365000Y-10735000D02*
X16515000Y-10585000D01*
X16365000Y-10435000D01*
X16215000Y-10585000D01*
X16365000Y-10735000D01*
X16365000Y-12640000D02*
X16515000Y-12490000D01*
X16365000Y-12340000D01*
X16215000Y-12490000D01*
X16365000Y-12640000D01*
X17270000Y-5270000D02*
X17420000Y-5120000D01*
X17270000Y-4970000D01*
X17120000Y-5120000D01*
X17270000Y-5270000D01*
X17270000Y-7175000D02*
X17420000Y-7025000D01*
X17270000Y-6875000D01*
X17120000Y-7025000D01*
X17270000Y-7175000D01*
X17270000Y-9080000D02*
X17420000Y-8930000D01*
X17270000Y-8780000D01*
X17120000Y-8930000D01*
X17270000Y-9080000D01*
X17270000Y-10985000D02*
X17420000Y-10835000D01*
X17270000Y-10685000D01*
X17120000Y-10835000D01*
X17270000Y-10985000D01*
X17270000Y-12890000D02*
X17420000Y-12740000D01*
X17270000Y-12590000D01*
X17120000Y-12740000D01*
X17270000Y-12890000D01*
X17770000Y-5490000D02*
X17920000Y-5340000D01*
X17770000Y-5190000D01*
X17620000Y-5340000D01*
X17770000Y-5490000D01*
X17770000Y-7395000D02*
X17920000Y-7245000D01*
X17770000Y-7095000D01*
X17620000Y-7245000D01*
X17770000Y-7395000D01*
X17770000Y-9300000D02*
X17920000Y-9150000D01*
X17770000Y-9000000D01*
X17620000Y-9150000D01*
X17770000Y-9300000D01*
X17770000Y-11205000D02*
X17920000Y-11055000D01*
X17770000Y-10905000D01*
X17620000Y-11055000D01*
X17770000Y-11205000D01*
X17770000Y-13110000D02*
X17920000Y-12960000D01*
X17770000Y-12810000D01*
X17620000Y-12960000D01*
X17770000Y-13110000D01*
X18270000Y-5270000D02*
X18420000Y-5120000D01*
X18270000Y-4970000D01*
X18120000Y-5120000D01*
X18270000Y-5270000D01*
X18270000Y-7175000D02*
X18420000Y-7025000D01*
X18270000Y-6875000D01*
X18120000Y-7025000D01*
X18270000Y-7175000D01*
X18270000Y-9080000D02*
X18420000Y-8930000D01*
X18270000Y-8780000D01*
X18120000Y-8930000D01*
X18270000Y-9080000D01*
X18270000Y-10985000D02*
X18420000Y-10835000D01*
X18270000Y-10685000D01*
X18120000Y-10835000D01*
X18270000Y-10985000D01*
X18270000Y-12890000D02*
X18420000Y-12740000D01*
X18270000Y-12590000D01*
X18120000Y-12740000D01*
X18270000Y-12890000D01*
X19175000Y-5760000D02*
X19325000Y-5610000D01*
X19175000Y-5460000D01*
X19025000Y-5610000D01*
X19175000Y-5760000D01*
X19175000Y-7665000D02*
X19325000Y-7515000D01*
X19175000Y-7365000D01*
X19025000Y-7515000D01*
X19175000Y-7665000D01*
X19175000Y-9570000D02*
X19325000Y-9420000D01*
X19175000Y-9270000D01*
X19025000Y-9420000D01*
X19175000Y-9570000D01*
X19175000Y-11475000D02*
X19325000Y-11325000D01*
X19175000Y-11175000D01*
X19025000Y-11325000D01*
X19175000Y-11475000D01*
X19175000Y-13380000D02*
X19325000Y-13230000D01*
X19175000Y-13080000D01*
X19025000Y-13230000D01*
X19175000Y-13380000D01*
X19675000Y-5980000D02*
X19825000Y-5830000D01*
X19675000Y-5680000D01*
X19525000Y-5830000D01*
X19675000Y-5980000D01*
X19675000Y-7885000D02*
X19825000Y-7735000D01*
X19675000Y-7585000D01*
X19525000Y-7735000D01*
X19675000Y-7885000D01*
X19675000Y-9790000D02*
X19825000Y-9640000D01*
X19675000Y-9490000D01*
X19525000Y-9640000D01*
X19675000Y-9790000D01*
X19675000Y-11695000D02*
X19825000Y-11545000D01*
X19675000Y-11395000D01*
X19525000Y-11545000D01*
X19675000Y-11695000D01*
X19675000Y-13600000D02*
X19825000Y-13450000D01*
X19675000Y-13300000D01*
X19525000Y-13450000D01*
X19675000Y-13600000D01*
X20175000Y-5760000D02*
X20325000Y-5610000D01*
X20175000Y-5460000D01*
X20025000Y-5610000D01*
X20175000Y-5760000D01*
X20175000Y-7665000D02*
X20325000Y-7515000D01*
X20175000Y-7365000D01*
X20025000Y-7515000D01*
X20175000Y-7665000D01*
X20175000Y-9570000D02*
X20325000Y-9420000D01*
X20175000Y-9270000D01*
X20025000Y-9420000D01*
X20175000Y-9570000D01*
X20175000Y-11475000D02*
X20325000Y-11325000D01*
X20175000Y-11175000D01*
X20025000Y-11325000D01*
X20175000Y-11475000D01*
X20175000Y-13380000D02*
X20325000Y-13230000D01*
X20175000Y-13080000D01*
X20025000Y-13230000D01*
X20175000Y-13380000D01*
X21080000Y-5760000D02*
X21230000Y-5610000D01*
X21080000Y-5460000D01*
X20930000Y-5610000D01*
X21080000Y-5760000D01*
X21080000Y-7665000D02*
X21230000Y-7515000D01*
X21080000Y-7365000D01*
X20930000Y-7515000D01*
X21080000Y-7665000D01*
X21080000Y-9570000D02*
X21230000Y-9420000D01*
X21080000Y-9270000D01*
X20930000Y-9420000D01*
X21080000Y-9570000D01*
X21080000Y-11475000D02*
X21230000Y-11325000D01*
X21080000Y-11175000D01*
X20930000Y-11325000D01*
X21080000Y-11475000D01*
X21080000Y-13380000D02*
X21230000Y-13230000D01*
X21080000Y-13080000D01*
X20930000Y-13230000D01*
X21080000Y-13380000D01*
X21580000Y-5980000D02*
X21730000Y-5830000D01*
X21580000Y-5680000D01*
X21430000Y-5830000D01*
X21580000Y-5980000D01*
X21580000Y-7885000D02*
X21730000Y-7735000D01*
X21580000Y-7585000D01*
X21430000Y-7735000D01*
X21580000Y-7885000D01*
X21580000Y-9790000D02*
X21730000Y-9640000D01*
X21580000Y-9490000D01*
X21430000Y-9640000D01*
X21580000Y-9790000D01*
X21580000Y-11695000D02*
X21730000Y-11545000D01*
X21580000Y-11395000D01*
X21430000Y-11545000D01*
X21580000Y-11695000D01*
X21580000Y-13600000D02*
X21730000Y-13450000D01*
X21580000Y-13300000D01*
X21430000Y-13450000D01*
X21580000Y-13600000D01*
X22080000Y-5760000D02*
X22230000Y-5610000D01*
X22080000Y-5460000D01*
X21930000Y-5610000D01*
X22080000Y-5760000D01*
X22080000Y-7665000D02*
X22230000Y-7515000D01*
X22080000Y-7365000D01*
X21930000Y-7515000D01*
X22080000Y-7665000D01*
X22080000Y-9570000D02*
X22230000Y-9420000D01*
X22080000Y-9270000D01*
X21930000Y-9420000D01*
X22080000Y-9570000D01*
X22080000Y-11475000D02*
X22230000Y-11325000D01*
X22080000Y-11175000D01*
X21930000Y-11325000D01*
X22080000Y-11475000D01*
X22080000Y-13380000D02*
X22230000Y-13230000D01*
X22080000Y-13080000D01*
X21930000Y-13230000D01*
X22080000Y-13380000D01*
X22985000Y-13380000D02*
X23135000Y-13230000D01*
X22985000Y-13080000D01*
X22835000Y-13230000D01*
X22985000Y-13380000D01*
X23485000Y-13600000D02*
X23635000Y-13450000D01*
X23485000Y-13300000D01*
X23335000Y-13450000D01*
X23485000Y-13600000D01*
X23855000Y-5842500D02*
X24005000Y-5692500D01*
X23855000Y-5542500D01*
X23705000Y-5692500D01*
X23855000Y-5842500D01*
X23855000Y-6842500D02*
X24005000Y-6692500D01*
X23855000Y-6542500D01*
X23705000Y-6692500D01*
X23855000Y-6842500D01*
X23855000Y-9652500D02*
X24005000Y-9502500D01*
X23855000Y-9352500D01*
X23705000Y-9502500D01*
X23855000Y-9652500D01*
X23855000Y-10652500D02*
X24005000Y-10502500D01*
X23855000Y-10352500D01*
X23705000Y-10502500D01*
X23855000Y-10652500D01*
X23985000Y-13380000D02*
X24135000Y-13230000D01*
X23985000Y-13080000D01*
X23835000Y-13230000D01*
X23985000Y-13380000D01*
X24075000Y-6342500D02*
X24225000Y-6192500D01*
X24075000Y-6042500D01*
X23925000Y-6192500D01*
X24075000Y-6342500D01*
X24075000Y-10152500D02*
X24225000Y-10002500D01*
X24075000Y-9852500D01*
X23925000Y-10002500D01*
X24075000Y-10152500D01*
X9501000Y-13170000D02*
X9841000Y-13510000D01*
X9841000Y-13170000D02*
X9501000Y-13510000D01*
X9841000Y-13340000D02*
G75*
G03*
X9841000Y-13340000I-170000J0D01*
G01*
X11590000Y-12670000D02*
X11930000Y-13010000D01*
X11930000Y-12670000D02*
X11590000Y-13010000D01*
X11930000Y-12840000D02*
G75*
G03*
X11930000Y-12840000I-170000J0D01*
G01*
X11885000Y-4830000D02*
X12225000Y-5170000D01*
X12225000Y-4830000D02*
X11885000Y-5170000D01*
X12225000Y-5000000D02*
G75*
G03*
X12225000Y-5000000I-170000J0D01*
G01*
X11885000Y-6740000D02*
X12225000Y-7080000D01*
X12225000Y-6740000D02*
X11885000Y-7080000D01*
X12225000Y-6910000D02*
G75*
G03*
X12225000Y-6910000I-170000J0D01*
G01*
X11885000Y-8640000D02*
X12225000Y-8980000D01*
X12225000Y-8640000D02*
X11885000Y-8980000D01*
X12225000Y-8810000D02*
G75*
G03*
X12225000Y-8810000I-170000J0D01*
G01*
X11885000Y-10545000D02*
X12225000Y-10885000D01*
X12225000Y-10545000D02*
X11885000Y-10885000D01*
X12225000Y-10715000D02*
G75*
G03*
X12225000Y-10715000I-170000J0D01*
G01*
X13790000Y-4580000D02*
X14130000Y-4920000D01*
X14130000Y-4580000D02*
X13790000Y-4920000D01*
X14130000Y-4750000D02*
G75*
G03*
X14130000Y-4750000I-170000J0D01*
G01*
X13790000Y-6485000D02*
X14130000Y-6825000D01*
X14130000Y-6485000D02*
X13790000Y-6825000D01*
X14130000Y-6655000D02*
G75*
G03*
X14130000Y-6655000I-170000J0D01*
G01*
X13790000Y-8390000D02*
X14130000Y-8730000D01*
X14130000Y-8390000D02*
X13790000Y-8730000D01*
X14130000Y-8560000D02*
G75*
G03*
X14130000Y-8560000I-170000J0D01*
G01*
X13790000Y-10295000D02*
X14130000Y-10635000D01*
X14130000Y-10295000D02*
X13790000Y-10635000D01*
X14130000Y-10465000D02*
G75*
G03*
X14130000Y-10465000I-170000J0D01*
G01*
X13790000Y-12200000D02*
X14130000Y-12540000D01*
X14130000Y-12200000D02*
X13790000Y-12540000D01*
X14130000Y-12370000D02*
G75*
G03*
X14130000Y-12370000I-170000J0D01*
G01*
X15695000Y-4330000D02*
X16035000Y-4670000D01*
X16035000Y-4330000D02*
X15695000Y-4670000D01*
X16035000Y-4500000D02*
G75*
G03*
X16035000Y-4500000I-170000J0D01*
G01*
X15695000Y-6235000D02*
X16035000Y-6575000D01*
X16035000Y-6235000D02*
X15695000Y-6575000D01*
X16035000Y-6405000D02*
G75*
G03*
X16035000Y-6405000I-170000J0D01*
G01*
X15695000Y-8140000D02*
X16035000Y-8480000D01*
X16035000Y-8140000D02*
X15695000Y-8480000D01*
X16035000Y-8310000D02*
G75*
G03*
X16035000Y-8310000I-170000J0D01*
G01*
X15695000Y-10045000D02*
X16035000Y-10385000D01*
X16035000Y-10045000D02*
X15695000Y-10385000D01*
X16035000Y-10215000D02*
G75*
G03*
X16035000Y-10215000I-170000J0D01*
G01*
X15695000Y-11950000D02*
X16035000Y-12290000D01*
X16035000Y-11950000D02*
X15695000Y-12290000D01*
X16035000Y-12120000D02*
G75*
G03*
X16035000Y-12120000I-170000J0D01*
G01*
X17600000Y-4580000D02*
X17940000Y-4920000D01*
X17940000Y-4580000D02*
X17600000Y-4920000D01*
X17940000Y-4750000D02*
G75*
G03*
X17940000Y-4750000I-170000J0D01*
G01*
X17600000Y-6485000D02*
X17940000Y-6825000D01*
X17940000Y-6485000D02*
X17600000Y-6825000D01*
X17940000Y-6655000D02*
G75*
G03*
X17940000Y-6655000I-170000J0D01*
G01*
X17600000Y-8390000D02*
X17940000Y-8730000D01*
X17940000Y-8390000D02*
X17600000Y-8730000D01*
X17940000Y-8560000D02*
G75*
G03*
X17940000Y-8560000I-170000J0D01*
G01*
X17600000Y-10295000D02*
X17940000Y-10635000D01*
X17940000Y-10295000D02*
X17600000Y-10635000D01*
X17940000Y-10465000D02*
G75*
G03*
X17940000Y-10465000I-170000J0D01*
G01*
X17600000Y-12200000D02*
X17940000Y-12540000D01*
X17940000Y-12200000D02*
X17600000Y-12540000D01*
X17940000Y-12370000D02*
G75*
G03*
X17940000Y-12370000I-170000J0D01*
G01*
X19505000Y-5070000D02*
X19845000Y-5410000D01*
X19845000Y-5070000D02*
X19505000Y-5410000D01*
X19845000Y-5240000D02*
G75*
G03*
X19845000Y-5240000I-170000J0D01*
G01*
X19505000Y-6975000D02*
X19845000Y-7315000D01*
X19845000Y-6975000D02*
X19505000Y-7315000D01*
X19845000Y-7145000D02*
G75*
G03*
X19845000Y-7145000I-170000J0D01*
G01*
X19505000Y-8880000D02*
X19845000Y-9220000D01*
X19845000Y-8880000D02*
X19505000Y-9220000D01*
X19845000Y-9050000D02*
G75*
G03*
X19845000Y-9050000I-170000J0D01*
G01*
X19505000Y-10785000D02*
X19845000Y-11125000D01*
X19845000Y-10785000D02*
X19505000Y-11125000D01*
X19845000Y-10955000D02*
G75*
G03*
X19845000Y-10955000I-170000J0D01*
G01*
X19505000Y-12690000D02*
X19845000Y-13030000D01*
X19845000Y-12690000D02*
X19505000Y-13030000D01*
X19845000Y-12860000D02*
G75*
G03*
X19845000Y-12860000I-170000J0D01*
G01*
X21410000Y-5070000D02*
X21750000Y-5410000D01*
X21750000Y-5070000D02*
X21410000Y-5410000D01*
X21750000Y-5240000D02*
G75*
G03*
X21750000Y-5240000I-170000J0D01*
G01*
X21410000Y-6975000D02*
X21750000Y-7315000D01*
X21750000Y-6975000D02*
X21410000Y-7315000D01*
X21750000Y-7145000D02*
G75*
G03*
X21750000Y-7145000I-170000J0D01*
G01*
X21410000Y-8880000D02*
X21750000Y-9220000D01*
X21750000Y-8880000D02*
X21410000Y-9220000D01*
X21750000Y-9050000D02*
G75*
G03*
X21750000Y-9050000I-170000J0D01*
G01*
X21410000Y-10785000D02*
X21750000Y-11125000D01*
X21750000Y-10785000D02*
X21410000Y-11125000D01*
X21750000Y-10955000D02*
G75*
G03*
X21750000Y-10955000I-170000J0D01*
G01*
X21410000Y-12690000D02*
X21750000Y-13030000D01*
X21750000Y-12690000D02*
X21410000Y-13030000D01*
X21750000Y-12860000D02*
G75*
G03*
X21750000Y-12860000I-170000J0D01*
G01*
X23315000Y-6022500D02*
X23655000Y-6362500D01*
X23655000Y-6022500D02*
X23315000Y-6362500D01*
X23655000Y-6192500D02*
G75*
G03*
X23655000Y-6192500I-170000J0D01*
G01*
X23315000Y-9832500D02*
X23655000Y-10172500D01*
X23655000Y-9832500D02*
X23315000Y-10172500D01*
X23655000Y-10002500D02*
G75*
G03*
X23655000Y-10002500I-170000J0D01*
G01*
X23315000Y-12690000D02*
X23655000Y-13030000D01*
X23655000Y-12690000D02*
X23315000Y-13030000D01*
X23655000Y-12860000D02*
G75*
G03*
X23655000Y-12860000I-170000J0D01*
G01*
D13*
X8491428Y-15145714D02*
X8491428Y-14845714D01*
X8562857Y-14845714D01*
X8605714Y-14860000D01*
X8634286Y-14888571D01*
X8648571Y-14917143D01*
X8662857Y-14974286D01*
X8662857Y-15017143D01*
X8648571Y-15074286D01*
X8634286Y-15102857D01*
X8605714Y-15131429D01*
X8562857Y-15145714D01*
X8491428Y-15145714D01*
X8791428Y-15145714D02*
X8791428Y-14945714D01*
X8791428Y-15002857D02*
X8805714Y-14974286D01*
X8820000Y-14960000D01*
X8848571Y-14945714D01*
X8877143Y-14945714D01*
X8977143Y-15145714D02*
X8977143Y-14945714D01*
X8977143Y-14845714D02*
X8962857Y-14860000D01*
X8977143Y-14874286D01*
X8991428Y-14860000D01*
X8977143Y-14845714D01*
X8977143Y-14874286D01*
X9162857Y-15145714D02*
X9134286Y-15131429D01*
X9120000Y-15102857D01*
X9120000Y-14845714D01*
X9320000Y-15145714D02*
X9291428Y-15131429D01*
X9277143Y-15102857D01*
X9277143Y-14845714D01*
X9662857Y-15145714D02*
X9662857Y-14845714D01*
X9762857Y-15060000D01*
X9862857Y-14845714D01*
X9862857Y-15145714D01*
X10134286Y-15145714D02*
X10134286Y-14988571D01*
X10120000Y-14960000D01*
X10091428Y-14945714D01*
X10034286Y-14945714D01*
X10005714Y-14960000D01*
X10134286Y-15131429D02*
X10105714Y-15145714D01*
X10034286Y-15145714D01*
X10005714Y-15131429D01*
X9991428Y-15102857D01*
X9991428Y-15074286D01*
X10005714Y-15045714D01*
X10034286Y-15031429D01*
X10105714Y-15031429D01*
X10134286Y-15017143D01*
X10277143Y-14945714D02*
X10277143Y-15245714D01*
X10277143Y-14960000D02*
X10305714Y-14945714D01*
X10362857Y-14945714D01*
X10391428Y-14960000D01*
X10405714Y-14974286D01*
X10420000Y-15002857D01*
X10420000Y-15088571D01*
X10405714Y-15117143D01*
X10391428Y-15131429D01*
X10362857Y-15145714D01*
X10305714Y-15145714D01*
X10277143Y-15131429D01*
X10548571Y-15117143D02*
X10562857Y-15131429D01*
X10548571Y-15145714D01*
X10534286Y-15131429D01*
X10548571Y-15117143D01*
X10548571Y-15145714D01*
X10548571Y-14960000D02*
X10562857Y-14974286D01*
X10548571Y-14988571D01*
X10534286Y-14974286D01*
X10548571Y-14960000D01*
X10548571Y-14988571D01*
X8165630Y-15620315D02*
X8205000Y-15659685D01*
X8205000Y-15620315D02*
X8165630Y-15659685D01*
X8548571Y-15475714D02*
X8577143Y-15475714D01*
X8605714Y-15490000D01*
X8620000Y-15504286D01*
X8634286Y-15532857D01*
X8648571Y-15590000D01*
X8648571Y-15661429D01*
X8634286Y-15718571D01*
X8620000Y-15747143D01*
X8605714Y-15761429D01*
X8577143Y-15775714D01*
X8548571Y-15775714D01*
X8520000Y-15761429D01*
X8505714Y-15747143D01*
X8491428Y-15718571D01*
X8477143Y-15661429D01*
X8477143Y-15590000D01*
X8491428Y-15532857D01*
X8505714Y-15504286D01*
X8520000Y-15490000D01*
X8548571Y-15475714D01*
X8777143Y-15747143D02*
X8791428Y-15761429D01*
X8777143Y-15775714D01*
X8762857Y-15761429D01*
X8777143Y-15747143D01*
X8777143Y-15775714D01*
X8891428Y-15475714D02*
X9077143Y-15475714D01*
X8977143Y-15590000D01*
X9020000Y-15590000D01*
X9048571Y-15604286D01*
X9062857Y-15618571D01*
X9077143Y-15647143D01*
X9077143Y-15718571D01*
X9062857Y-15747143D01*
X9048571Y-15761429D01*
X9020000Y-15775714D01*
X8934286Y-15775714D01*
X8905714Y-15761429D01*
X8891428Y-15747143D01*
X9220000Y-15775714D02*
X9277143Y-15775714D01*
X9305714Y-15761429D01*
X9320000Y-15747143D01*
X9348571Y-15704286D01*
X9362857Y-15647143D01*
X9362857Y-15532857D01*
X9348571Y-15504286D01*
X9334286Y-15490000D01*
X9305714Y-15475714D01*
X9248571Y-15475714D01*
X9220000Y-15490000D01*
X9205714Y-15504286D01*
X9191428Y-15532857D01*
X9191428Y-15604286D01*
X9205714Y-15632857D01*
X9220000Y-15647143D01*
X9248571Y-15661429D01*
X9305714Y-15661429D01*
X9334286Y-15647143D01*
X9348571Y-15632857D01*
X9362857Y-15604286D01*
X9620000Y-15575714D02*
X9620000Y-15775714D01*
X9548571Y-15461429D02*
X9477143Y-15675714D01*
X9662857Y-15675714D01*
X9777143Y-15775714D02*
X9777143Y-15575714D01*
X9777143Y-15604286D02*
X9791428Y-15590000D01*
X9820000Y-15575714D01*
X9862857Y-15575714D01*
X9891428Y-15590000D01*
X9905714Y-15618571D01*
X9905714Y-15775714D01*
X9905714Y-15618571D02*
X9920000Y-15590000D01*
X9948571Y-15575714D01*
X9991428Y-15575714D01*
X10020000Y-15590000D01*
X10034286Y-15618571D01*
X10034286Y-15775714D01*
X10177143Y-15775714D02*
X10177143Y-15575714D01*
X10177143Y-15604286D02*
X10191428Y-15590000D01*
X10220000Y-15575714D01*
X10262857Y-15575714D01*
X10291428Y-15590000D01*
X10305714Y-15618571D01*
X10305714Y-15775714D01*
X10305714Y-15618571D02*
X10320000Y-15590000D01*
X10348571Y-15575714D01*
X10391428Y-15575714D01*
X10420000Y-15590000D01*
X10434286Y-15618571D01*
X10434286Y-15775714D01*
X11020000Y-15461429D02*
X10762857Y-15847143D01*
X11405714Y-15475714D02*
X11434286Y-15475714D01*
X11462857Y-15490000D01*
X11477143Y-15504286D01*
X11491428Y-15532857D01*
X11505714Y-15590000D01*
X11505714Y-15661429D01*
X11491428Y-15718571D01*
X11477143Y-15747143D01*
X11462857Y-15761429D01*
X11434286Y-15775714D01*
X11405714Y-15775714D01*
X11377143Y-15761429D01*
X11362857Y-15747143D01*
X11348571Y-15718571D01*
X11334286Y-15661429D01*
X11334286Y-15590000D01*
X11348571Y-15532857D01*
X11362857Y-15504286D01*
X11377143Y-15490000D01*
X11405714Y-15475714D01*
X11634286Y-15747143D02*
X11648571Y-15761429D01*
X11634286Y-15775714D01*
X11620000Y-15761429D01*
X11634286Y-15747143D01*
X11634286Y-15775714D01*
X11834286Y-15475714D02*
X11862857Y-15475714D01*
X11891428Y-15490000D01*
X11905714Y-15504286D01*
X11920000Y-15532857D01*
X11934286Y-15590000D01*
X11934286Y-15661429D01*
X11920000Y-15718571D01*
X11905714Y-15747143D01*
X11891428Y-15761429D01*
X11862857Y-15775714D01*
X11834286Y-15775714D01*
X11805714Y-15761429D01*
X11791428Y-15747143D01*
X11777143Y-15718571D01*
X11762857Y-15661429D01*
X11762857Y-15590000D01*
X11777143Y-15532857D01*
X11791428Y-15504286D01*
X11805714Y-15490000D01*
X11834286Y-15475714D01*
X12220000Y-15775714D02*
X12048571Y-15775714D01*
X12134286Y-15775714D02*
X12134286Y-15475714D01*
X12105714Y-15518571D01*
X12077143Y-15547143D01*
X12048571Y-15561429D01*
X12491428Y-15475714D02*
X12348571Y-15475714D01*
X12334286Y-15618571D01*
X12348571Y-15604286D01*
X12377143Y-15590000D01*
X12448571Y-15590000D01*
X12477143Y-15604286D01*
X12491428Y-15618571D01*
X12505714Y-15647143D01*
X12505714Y-15718571D01*
X12491428Y-15747143D01*
X12477143Y-15761429D01*
X12448571Y-15775714D01*
X12377143Y-15775714D01*
X12348571Y-15761429D01*
X12334286Y-15747143D01*
X12777143Y-15475714D02*
X12634286Y-15475714D01*
X12620000Y-15618571D01*
X12634286Y-15604286D01*
X12662857Y-15590000D01*
X12734286Y-15590000D01*
X12762857Y-15604286D01*
X12777143Y-15618571D01*
X12791428Y-15647143D01*
X12791428Y-15718571D01*
X12777143Y-15747143D01*
X12762857Y-15761429D01*
X12734286Y-15775714D01*
X12662857Y-15775714D01*
X12634286Y-15761429D01*
X12620000Y-15747143D01*
X12905714Y-15475714D02*
X12905714Y-15532857D01*
X13020000Y-15475714D02*
X13020000Y-15532857D01*
X13462857Y-15890000D02*
X13448571Y-15875714D01*
X13420000Y-15832857D01*
X13405714Y-15804286D01*
X13391428Y-15761429D01*
X13377143Y-15690000D01*
X13377143Y-15632857D01*
X13391428Y-15561429D01*
X13405714Y-15518571D01*
X13420000Y-15490000D01*
X13448571Y-15447143D01*
X13462857Y-15432857D01*
X13562857Y-15504286D02*
X13577143Y-15490000D01*
X13605714Y-15475714D01*
X13677143Y-15475714D01*
X13705714Y-15490000D01*
X13720000Y-15504286D01*
X13734286Y-15532857D01*
X13734286Y-15561429D01*
X13720000Y-15604286D01*
X13548571Y-15775714D01*
X13734286Y-15775714D01*
X13920000Y-15475714D02*
X13948571Y-15475714D01*
X13977143Y-15490000D01*
X13991428Y-15504286D01*
X14005714Y-15532857D01*
X14020000Y-15590000D01*
X14020000Y-15661429D01*
X14005714Y-15718571D01*
X13991428Y-15747143D01*
X13977143Y-15761429D01*
X13948571Y-15775714D01*
X13920000Y-15775714D01*
X13891428Y-15761429D01*
X13877143Y-15747143D01*
X13862857Y-15718571D01*
X13848571Y-15661429D01*
X13848571Y-15590000D01*
X13862857Y-15532857D01*
X13877143Y-15504286D01*
X13891428Y-15490000D01*
X13920000Y-15475714D01*
X14377143Y-15775714D02*
X14377143Y-15475714D01*
X14505714Y-15775714D02*
X14505714Y-15618571D01*
X14491428Y-15590000D01*
X14462857Y-15575714D01*
X14420000Y-15575714D01*
X14391428Y-15590000D01*
X14377143Y-15604286D01*
X14691428Y-15775714D02*
X14662857Y-15761429D01*
X14648571Y-15747143D01*
X14634286Y-15718571D01*
X14634286Y-15632857D01*
X14648571Y-15604286D01*
X14662857Y-15590000D01*
X14691428Y-15575714D01*
X14734286Y-15575714D01*
X14762857Y-15590000D01*
X14777143Y-15604286D01*
X14791428Y-15632857D01*
X14791428Y-15718571D01*
X14777143Y-15747143D01*
X14762857Y-15761429D01*
X14734286Y-15775714D01*
X14691428Y-15775714D01*
X14962857Y-15775714D02*
X14934286Y-15761429D01*
X14920000Y-15732857D01*
X14920000Y-15475714D01*
X15191428Y-15761429D02*
X15162857Y-15775714D01*
X15105714Y-15775714D01*
X15077143Y-15761429D01*
X15062857Y-15732857D01*
X15062857Y-15618571D01*
X15077143Y-15590000D01*
X15105714Y-15575714D01*
X15162857Y-15575714D01*
X15191428Y-15590000D01*
X15205714Y-15618571D01*
X15205714Y-15647143D01*
X15062857Y-15675714D01*
X15320000Y-15761429D02*
X15348571Y-15775714D01*
X15405714Y-15775714D01*
X15434286Y-15761429D01*
X15448571Y-15732857D01*
X15448571Y-15718571D01*
X15434286Y-15690000D01*
X15405714Y-15675714D01*
X15362857Y-15675714D01*
X15334286Y-15661429D01*
X15320000Y-15632857D01*
X15320000Y-15618571D01*
X15334286Y-15590000D01*
X15362857Y-15575714D01*
X15405714Y-15575714D01*
X15434286Y-15590000D01*
X15548571Y-15890000D02*
X15562857Y-15875714D01*
X15591428Y-15832857D01*
X15605714Y-15804286D01*
X15620000Y-15761429D01*
X15634286Y-15690000D01*
X15634286Y-15632857D01*
X15620000Y-15561429D01*
X15605714Y-15518571D01*
X15591428Y-15490000D01*
X15562857Y-15447143D01*
X15548571Y-15432857D01*
X16091428Y-15890000D02*
X16077143Y-15875714D01*
X16048571Y-15832857D01*
X16034286Y-15804286D01*
X16020000Y-15761429D01*
X16005714Y-15690000D01*
X16005714Y-15632857D01*
X16020000Y-15561429D01*
X16034286Y-15518571D01*
X16048571Y-15490000D01*
X16077143Y-15447143D01*
X16091428Y-15432857D01*
X16205714Y-15575714D02*
X16205714Y-15775714D01*
X16205714Y-15604286D02*
X16220000Y-15590000D01*
X16248571Y-15575714D01*
X16291428Y-15575714D01*
X16320000Y-15590000D01*
X16334286Y-15618571D01*
X16334286Y-15775714D01*
X16520000Y-15775714D02*
X16491428Y-15761429D01*
X16477143Y-15747143D01*
X16462857Y-15718571D01*
X16462857Y-15632857D01*
X16477143Y-15604286D01*
X16491428Y-15590000D01*
X16520000Y-15575714D01*
X16562857Y-15575714D01*
X16591428Y-15590000D01*
X16605714Y-15604286D01*
X16620000Y-15632857D01*
X16620000Y-15718571D01*
X16605714Y-15747143D01*
X16591428Y-15761429D01*
X16562857Y-15775714D01*
X16520000Y-15775714D01*
X16705714Y-15575714D02*
X16820000Y-15575714D01*
X16748571Y-15475714D02*
X16748571Y-15732857D01*
X16762857Y-15761429D01*
X16791428Y-15775714D01*
X16820000Y-15775714D01*
X17148571Y-15575714D02*
X17148571Y-15875714D01*
X17148571Y-15590000D02*
X17177143Y-15575714D01*
X17234286Y-15575714D01*
X17262857Y-15590000D01*
X17277143Y-15604286D01*
X17291428Y-15632857D01*
X17291428Y-15718571D01*
X17277143Y-15747143D01*
X17262857Y-15761429D01*
X17234286Y-15775714D01*
X17177143Y-15775714D01*
X17148571Y-15761429D01*
X17462857Y-15775714D02*
X17434286Y-15761429D01*
X17420000Y-15732857D01*
X17420000Y-15475714D01*
X17705714Y-15775714D02*
X17705714Y-15618571D01*
X17691428Y-15590000D01*
X17662857Y-15575714D01*
X17605714Y-15575714D01*
X17577143Y-15590000D01*
X17705714Y-15761429D02*
X17677143Y-15775714D01*
X17605714Y-15775714D01*
X17577143Y-15761429D01*
X17562857Y-15732857D01*
X17562857Y-15704286D01*
X17577143Y-15675714D01*
X17605714Y-15661429D01*
X17677143Y-15661429D01*
X17705714Y-15647143D01*
X17805714Y-15575714D02*
X17920000Y-15575714D01*
X17848571Y-15475714D02*
X17848571Y-15732857D01*
X17862857Y-15761429D01*
X17891428Y-15775714D01*
X17920000Y-15775714D01*
X18134286Y-15761429D02*
X18105714Y-15775714D01*
X18048571Y-15775714D01*
X18020000Y-15761429D01*
X18005714Y-15732857D01*
X18005714Y-15618571D01*
X18020000Y-15590000D01*
X18048571Y-15575714D01*
X18105714Y-15575714D01*
X18134286Y-15590000D01*
X18148571Y-15618571D01*
X18148571Y-15647143D01*
X18005714Y-15675714D01*
X18405714Y-15775714D02*
X18405714Y-15475714D01*
X18405714Y-15761429D02*
X18377143Y-15775714D01*
X18320000Y-15775714D01*
X18291428Y-15761429D01*
X18277143Y-15747143D01*
X18262857Y-15718571D01*
X18262857Y-15632857D01*
X18277143Y-15604286D01*
X18291428Y-15590000D01*
X18320000Y-15575714D01*
X18377143Y-15575714D01*
X18405714Y-15590000D01*
X18520000Y-15890000D02*
X18534286Y-15875714D01*
X18562857Y-15832857D01*
X18577143Y-15804286D01*
X18591428Y-15761429D01*
X18605714Y-15690000D01*
X18605714Y-15632857D01*
X18591428Y-15561429D01*
X18577143Y-15518571D01*
X18562857Y-15490000D01*
X18534286Y-15447143D01*
X18520000Y-15432857D01*
X8205000Y-16036000D02*
G75*
G03*
X8205000Y-16036000I-50000J0D01*
G01*
X8648571Y-16171714D02*
X8477143Y-16171714D01*
X8562857Y-16171714D02*
X8562857Y-15871714D01*
X8534286Y-15914571D01*
X8505714Y-15943143D01*
X8477143Y-15957429D01*
X8777143Y-16143143D02*
X8791428Y-16157429D01*
X8777143Y-16171714D01*
X8762857Y-16157429D01*
X8777143Y-16143143D01*
X8777143Y-16171714D01*
X8977143Y-15871714D02*
X9005714Y-15871714D01*
X9034286Y-15886000D01*
X9048571Y-15900286D01*
X9062857Y-15928857D01*
X9077143Y-15986000D01*
X9077143Y-16057429D01*
X9062857Y-16114571D01*
X9048571Y-16143143D01*
X9034286Y-16157429D01*
X9005714Y-16171714D01*
X8977143Y-16171714D01*
X8948571Y-16157429D01*
X8934286Y-16143143D01*
X8920000Y-16114571D01*
X8905714Y-16057429D01*
X8905714Y-15986000D01*
X8920000Y-15928857D01*
X8934286Y-15900286D01*
X8948571Y-15886000D01*
X8977143Y-15871714D01*
X9262857Y-15871714D02*
X9291428Y-15871714D01*
X9320000Y-15886000D01*
X9334286Y-15900286D01*
X9348571Y-15928857D01*
X9362857Y-15986000D01*
X9362857Y-16057429D01*
X9348571Y-16114571D01*
X9334286Y-16143143D01*
X9320000Y-16157429D01*
X9291428Y-16171714D01*
X9262857Y-16171714D01*
X9234286Y-16157429D01*
X9220000Y-16143143D01*
X9205714Y-16114571D01*
X9191428Y-16057429D01*
X9191428Y-15986000D01*
X9205714Y-15928857D01*
X9220000Y-15900286D01*
X9234286Y-15886000D01*
X9262857Y-15871714D01*
X9548571Y-15871714D02*
X9577143Y-15871714D01*
X9605714Y-15886000D01*
X9620000Y-15900286D01*
X9634286Y-15928857D01*
X9648571Y-15986000D01*
X9648571Y-16057429D01*
X9634286Y-16114571D01*
X9620000Y-16143143D01*
X9605714Y-16157429D01*
X9577143Y-16171714D01*
X9548571Y-16171714D01*
X9520000Y-16157429D01*
X9505714Y-16143143D01*
X9491428Y-16114571D01*
X9477143Y-16057429D01*
X9477143Y-15986000D01*
X9491428Y-15928857D01*
X9505714Y-15900286D01*
X9520000Y-15886000D01*
X9548571Y-15871714D01*
X9777143Y-16171714D02*
X9777143Y-15971714D01*
X9777143Y-16000286D02*
X9791428Y-15986000D01*
X9820000Y-15971714D01*
X9862857Y-15971714D01*
X9891428Y-15986000D01*
X9905714Y-16014571D01*
X9905714Y-16171714D01*
X9905714Y-16014571D02*
X9920000Y-15986000D01*
X9948571Y-15971714D01*
X9991428Y-15971714D01*
X10020000Y-15986000D01*
X10034286Y-16014571D01*
X10034286Y-16171714D01*
X10177143Y-16171714D02*
X10177143Y-15971714D01*
X10177143Y-16000286D02*
X10191428Y-15986000D01*
X10220000Y-15971714D01*
X10262857Y-15971714D01*
X10291428Y-15986000D01*
X10305714Y-16014571D01*
X10305714Y-16171714D01*
X10305714Y-16014571D02*
X10320000Y-15986000D01*
X10348571Y-15971714D01*
X10391428Y-15971714D01*
X10420000Y-15986000D01*
X10434286Y-16014571D01*
X10434286Y-16171714D01*
X11020000Y-15857429D02*
X10762857Y-16243143D01*
X11405714Y-15871714D02*
X11434286Y-15871714D01*
X11462857Y-15886000D01*
X11477143Y-15900286D01*
X11491428Y-15928857D01*
X11505714Y-15986000D01*
X11505714Y-16057429D01*
X11491428Y-16114571D01*
X11477143Y-16143143D01*
X11462857Y-16157429D01*
X11434286Y-16171714D01*
X11405714Y-16171714D01*
X11377143Y-16157429D01*
X11362857Y-16143143D01*
X11348571Y-16114571D01*
X11334286Y-16057429D01*
X11334286Y-15986000D01*
X11348571Y-15928857D01*
X11362857Y-15900286D01*
X11377143Y-15886000D01*
X11405714Y-15871714D01*
X11634286Y-16143143D02*
X11648571Y-16157429D01*
X11634286Y-16171714D01*
X11620000Y-16157429D01*
X11634286Y-16143143D01*
X11634286Y-16171714D01*
X11834286Y-15871714D02*
X11862857Y-15871714D01*
X11891428Y-15886000D01*
X11905714Y-15900286D01*
X11920000Y-15928857D01*
X11934286Y-15986000D01*
X11934286Y-16057429D01*
X11920000Y-16114571D01*
X11905714Y-16143143D01*
X11891428Y-16157429D01*
X11862857Y-16171714D01*
X11834286Y-16171714D01*
X11805714Y-16157429D01*
X11791428Y-16143143D01*
X11777143Y-16114571D01*
X11762857Y-16057429D01*
X11762857Y-15986000D01*
X11777143Y-15928857D01*
X11791428Y-15900286D01*
X11805714Y-15886000D01*
X11834286Y-15871714D01*
X12034286Y-15871714D02*
X12220000Y-15871714D01*
X12120000Y-15986000D01*
X12162857Y-15986000D01*
X12191428Y-16000286D01*
X12205714Y-16014571D01*
X12220000Y-16043143D01*
X12220000Y-16114571D01*
X12205714Y-16143143D01*
X12191428Y-16157429D01*
X12162857Y-16171714D01*
X12077143Y-16171714D01*
X12048571Y-16157429D01*
X12034286Y-16143143D01*
X12362857Y-16171714D02*
X12420000Y-16171714D01*
X12448571Y-16157429D01*
X12462857Y-16143143D01*
X12491428Y-16100286D01*
X12505714Y-16043143D01*
X12505714Y-15928857D01*
X12491428Y-15900286D01*
X12477143Y-15886000D01*
X12448571Y-15871714D01*
X12391428Y-15871714D01*
X12362857Y-15886000D01*
X12348571Y-15900286D01*
X12334286Y-15928857D01*
X12334286Y-16000286D01*
X12348571Y-16028857D01*
X12362857Y-16043143D01*
X12391428Y-16057429D01*
X12448571Y-16057429D01*
X12477143Y-16043143D01*
X12491428Y-16028857D01*
X12505714Y-16000286D01*
X12762857Y-15971714D02*
X12762857Y-16171714D01*
X12691428Y-15857429D02*
X12620000Y-16071714D01*
X12805714Y-16071714D01*
X12905714Y-15871714D02*
X12905714Y-15928857D01*
X13020000Y-15871714D02*
X13020000Y-15928857D01*
X13462857Y-16286000D02*
X13448571Y-16271714D01*
X13420000Y-16228857D01*
X13405714Y-16200286D01*
X13391428Y-16157429D01*
X13377143Y-16086000D01*
X13377143Y-16028857D01*
X13391428Y-15957429D01*
X13405714Y-15914571D01*
X13420000Y-15886000D01*
X13448571Y-15843143D01*
X13462857Y-15828857D01*
X13705714Y-15871714D02*
X13648571Y-15871714D01*
X13620000Y-15886000D01*
X13605714Y-15900286D01*
X13577143Y-15943143D01*
X13562857Y-16000286D01*
X13562857Y-16114571D01*
X13577143Y-16143143D01*
X13591428Y-16157429D01*
X13620000Y-16171714D01*
X13677143Y-16171714D01*
X13705714Y-16157429D01*
X13720000Y-16143143D01*
X13734286Y-16114571D01*
X13734286Y-16043143D01*
X13720000Y-16014571D01*
X13705714Y-16000286D01*
X13677143Y-15986000D01*
X13620000Y-15986000D01*
X13591428Y-16000286D01*
X13577143Y-16014571D01*
X13562857Y-16043143D01*
X13905714Y-16000286D02*
X13877143Y-15986000D01*
X13862857Y-15971714D01*
X13848571Y-15943143D01*
X13848571Y-15928857D01*
X13862857Y-15900286D01*
X13877143Y-15886000D01*
X13905714Y-15871714D01*
X13962857Y-15871714D01*
X13991428Y-15886000D01*
X14005714Y-15900286D01*
X14020000Y-15928857D01*
X14020000Y-15943143D01*
X14005714Y-15971714D01*
X13991428Y-15986000D01*
X13962857Y-16000286D01*
X13905714Y-16000286D01*
X13877143Y-16014571D01*
X13862857Y-16028857D01*
X13848571Y-16057429D01*
X13848571Y-16114571D01*
X13862857Y-16143143D01*
X13877143Y-16157429D01*
X13905714Y-16171714D01*
X13962857Y-16171714D01*
X13991428Y-16157429D01*
X14005714Y-16143143D01*
X14020000Y-16114571D01*
X14020000Y-16057429D01*
X14005714Y-16028857D01*
X13991428Y-16014571D01*
X13962857Y-16000286D01*
X14377143Y-16171714D02*
X14377143Y-15871714D01*
X14505714Y-16171714D02*
X14505714Y-16014571D01*
X14491428Y-15986000D01*
X14462857Y-15971714D01*
X14420000Y-15971714D01*
X14391428Y-15986000D01*
X14377143Y-16000286D01*
X14691428Y-16171714D02*
X14662857Y-16157429D01*
X14648571Y-16143143D01*
X14634286Y-16114571D01*
X14634286Y-16028857D01*
X14648571Y-16000286D01*
X14662857Y-15986000D01*
X14691428Y-15971714D01*
X14734286Y-15971714D01*
X14762857Y-15986000D01*
X14777143Y-16000286D01*
X14791428Y-16028857D01*
X14791428Y-16114571D01*
X14777143Y-16143143D01*
X14762857Y-16157429D01*
X14734286Y-16171714D01*
X14691428Y-16171714D01*
X14962857Y-16171714D02*
X14934286Y-16157429D01*
X14920000Y-16128857D01*
X14920000Y-15871714D01*
X15191428Y-16157429D02*
X15162857Y-16171714D01*
X15105714Y-16171714D01*
X15077143Y-16157429D01*
X15062857Y-16128857D01*
X15062857Y-16014571D01*
X15077143Y-15986000D01*
X15105714Y-15971714D01*
X15162857Y-15971714D01*
X15191428Y-15986000D01*
X15205714Y-16014571D01*
X15205714Y-16043143D01*
X15062857Y-16071714D01*
X15320000Y-16157429D02*
X15348571Y-16171714D01*
X15405714Y-16171714D01*
X15434286Y-16157429D01*
X15448571Y-16128857D01*
X15448571Y-16114571D01*
X15434286Y-16086000D01*
X15405714Y-16071714D01*
X15362857Y-16071714D01*
X15334286Y-16057429D01*
X15320000Y-16028857D01*
X15320000Y-16014571D01*
X15334286Y-15986000D01*
X15362857Y-15971714D01*
X15405714Y-15971714D01*
X15434286Y-15986000D01*
X15548571Y-16286000D02*
X15562857Y-16271714D01*
X15591428Y-16228857D01*
X15605714Y-16200286D01*
X15620000Y-16157429D01*
X15634286Y-16086000D01*
X15634286Y-16028857D01*
X15620000Y-15957429D01*
X15605714Y-15914571D01*
X15591428Y-15886000D01*
X15562857Y-15843143D01*
X15548571Y-15828857D01*
X16091428Y-16286000D02*
X16077143Y-16271714D01*
X16048571Y-16228857D01*
X16034286Y-16200286D01*
X16020000Y-16157429D01*
X16005714Y-16086000D01*
X16005714Y-16028857D01*
X16020000Y-15957429D01*
X16034286Y-15914571D01*
X16048571Y-15886000D01*
X16077143Y-15843143D01*
X16091428Y-15828857D01*
X16205714Y-15971714D02*
X16205714Y-16171714D01*
X16205714Y-16000286D02*
X16220000Y-15986000D01*
X16248571Y-15971714D01*
X16291428Y-15971714D01*
X16320000Y-15986000D01*
X16334286Y-16014571D01*
X16334286Y-16171714D01*
X16520000Y-16171714D02*
X16491428Y-16157429D01*
X16477143Y-16143143D01*
X16462857Y-16114571D01*
X16462857Y-16028857D01*
X16477143Y-16000286D01*
X16491428Y-15986000D01*
X16520000Y-15971714D01*
X16562857Y-15971714D01*
X16591428Y-15986000D01*
X16605714Y-16000286D01*
X16620000Y-16028857D01*
X16620000Y-16114571D01*
X16605714Y-16143143D01*
X16591428Y-16157429D01*
X16562857Y-16171714D01*
X16520000Y-16171714D01*
X16705714Y-15971714D02*
X16820000Y-15971714D01*
X16748571Y-15871714D02*
X16748571Y-16128857D01*
X16762857Y-16157429D01*
X16791428Y-16171714D01*
X16820000Y-16171714D01*
X17148571Y-15971714D02*
X17148571Y-16271714D01*
X17148571Y-15986000D02*
X17177143Y-15971714D01*
X17234286Y-15971714D01*
X17262857Y-15986000D01*
X17277143Y-16000286D01*
X17291428Y-16028857D01*
X17291428Y-16114571D01*
X17277143Y-16143143D01*
X17262857Y-16157429D01*
X17234286Y-16171714D01*
X17177143Y-16171714D01*
X17148571Y-16157429D01*
X17462857Y-16171714D02*
X17434286Y-16157429D01*
X17420000Y-16128857D01*
X17420000Y-15871714D01*
X17705714Y-16171714D02*
X17705714Y-16014571D01*
X17691428Y-15986000D01*
X17662857Y-15971714D01*
X17605714Y-15971714D01*
X17577143Y-15986000D01*
X17705714Y-16157429D02*
X17677143Y-16171714D01*
X17605714Y-16171714D01*
X17577143Y-16157429D01*
X17562857Y-16128857D01*
X17562857Y-16100286D01*
X17577143Y-16071714D01*
X17605714Y-16057429D01*
X17677143Y-16057429D01*
X17705714Y-16043143D01*
X17805714Y-15971714D02*
X17920000Y-15971714D01*
X17848571Y-15871714D02*
X17848571Y-16128857D01*
X17862857Y-16157429D01*
X17891428Y-16171714D01*
X17920000Y-16171714D01*
X18134286Y-16157429D02*
X18105714Y-16171714D01*
X18048571Y-16171714D01*
X18020000Y-16157429D01*
X18005714Y-16128857D01*
X18005714Y-16014571D01*
X18020000Y-15986000D01*
X18048571Y-15971714D01*
X18105714Y-15971714D01*
X18134286Y-15986000D01*
X18148571Y-16014571D01*
X18148571Y-16043143D01*
X18005714Y-16071714D01*
X18405714Y-16171714D02*
X18405714Y-15871714D01*
X18405714Y-16157429D02*
X18377143Y-16171714D01*
X18320000Y-16171714D01*
X18291428Y-16157429D01*
X18277143Y-16143143D01*
X18262857Y-16114571D01*
X18262857Y-16028857D01*
X18277143Y-16000286D01*
X18291428Y-15986000D01*
X18320000Y-15971714D01*
X18377143Y-15971714D01*
X18405714Y-15986000D01*
X18520000Y-16286000D02*
X18534286Y-16271714D01*
X18562857Y-16228857D01*
X18577143Y-16200286D01*
X18591428Y-16157429D01*
X18605714Y-16086000D01*
X18605714Y-16028857D01*
X18591428Y-15957429D01*
X18577143Y-15914571D01*
X18562857Y-15886000D01*
X18534286Y-15843143D01*
X18520000Y-15828857D01*
X8145000Y-16372000D02*
X8145000Y-16492000D01*
X8085000Y-16432000D02*
X8205000Y-16432000D01*
X8648571Y-16567714D02*
X8477143Y-16567714D01*
X8562857Y-16567714D02*
X8562857Y-16267714D01*
X8534286Y-16310571D01*
X8505714Y-16339143D01*
X8477143Y-16353429D01*
X8777143Y-16539143D02*
X8791428Y-16553429D01*
X8777143Y-16567714D01*
X8762857Y-16553429D01*
X8777143Y-16539143D01*
X8777143Y-16567714D01*
X8905714Y-16296286D02*
X8920000Y-16282000D01*
X8948571Y-16267714D01*
X9020000Y-16267714D01*
X9048571Y-16282000D01*
X9062857Y-16296286D01*
X9077143Y-16324857D01*
X9077143Y-16353429D01*
X9062857Y-16396286D01*
X8891428Y-16567714D01*
X9077143Y-16567714D01*
X9262857Y-16267714D02*
X9291428Y-16267714D01*
X9320000Y-16282000D01*
X9334286Y-16296286D01*
X9348571Y-16324857D01*
X9362857Y-16382000D01*
X9362857Y-16453429D01*
X9348571Y-16510571D01*
X9334286Y-16539143D01*
X9320000Y-16553429D01*
X9291428Y-16567714D01*
X9262857Y-16567714D01*
X9234286Y-16553429D01*
X9220000Y-16539143D01*
X9205714Y-16510571D01*
X9191428Y-16453429D01*
X9191428Y-16382000D01*
X9205714Y-16324857D01*
X9220000Y-16296286D01*
X9234286Y-16282000D01*
X9262857Y-16267714D01*
X9548571Y-16267714D02*
X9577143Y-16267714D01*
X9605714Y-16282000D01*
X9620000Y-16296286D01*
X9634286Y-16324857D01*
X9648571Y-16382000D01*
X9648571Y-16453429D01*
X9634286Y-16510571D01*
X9620000Y-16539143D01*
X9605714Y-16553429D01*
X9577143Y-16567714D01*
X9548571Y-16567714D01*
X9520000Y-16553429D01*
X9505714Y-16539143D01*
X9491428Y-16510571D01*
X9477143Y-16453429D01*
X9477143Y-16382000D01*
X9491428Y-16324857D01*
X9505714Y-16296286D01*
X9520000Y-16282000D01*
X9548571Y-16267714D01*
X9777143Y-16567714D02*
X9777143Y-16367714D01*
X9777143Y-16396286D02*
X9791428Y-16382000D01*
X9820000Y-16367714D01*
X9862857Y-16367714D01*
X9891428Y-16382000D01*
X9905714Y-16410571D01*
X9905714Y-16567714D01*
X9905714Y-16410571D02*
X9920000Y-16382000D01*
X9948571Y-16367714D01*
X9991428Y-16367714D01*
X10020000Y-16382000D01*
X10034286Y-16410571D01*
X10034286Y-16567714D01*
X10177143Y-16567714D02*
X10177143Y-16367714D01*
X10177143Y-16396286D02*
X10191428Y-16382000D01*
X10220000Y-16367714D01*
X10262857Y-16367714D01*
X10291428Y-16382000D01*
X10305714Y-16410571D01*
X10305714Y-16567714D01*
X10305714Y-16410571D02*
X10320000Y-16382000D01*
X10348571Y-16367714D01*
X10391428Y-16367714D01*
X10420000Y-16382000D01*
X10434286Y-16410571D01*
X10434286Y-16567714D01*
X11020000Y-16253429D02*
X10762857Y-16639143D01*
X11405714Y-16267714D02*
X11434286Y-16267714D01*
X11462857Y-16282000D01*
X11477143Y-16296286D01*
X11491428Y-16324857D01*
X11505714Y-16382000D01*
X11505714Y-16453429D01*
X11491428Y-16510571D01*
X11477143Y-16539143D01*
X11462857Y-16553429D01*
X11434286Y-16567714D01*
X11405714Y-16567714D01*
X11377143Y-16553429D01*
X11362857Y-16539143D01*
X11348571Y-16510571D01*
X11334286Y-16453429D01*
X11334286Y-16382000D01*
X11348571Y-16324857D01*
X11362857Y-16296286D01*
X11377143Y-16282000D01*
X11405714Y-16267714D01*
X11634286Y-16539143D02*
X11648571Y-16553429D01*
X11634286Y-16567714D01*
X11620000Y-16553429D01*
X11634286Y-16539143D01*
X11634286Y-16567714D01*
X11834286Y-16267714D02*
X11862857Y-16267714D01*
X11891428Y-16282000D01*
X11905714Y-16296286D01*
X11920000Y-16324857D01*
X11934286Y-16382000D01*
X11934286Y-16453429D01*
X11920000Y-16510571D01*
X11905714Y-16539143D01*
X11891428Y-16553429D01*
X11862857Y-16567714D01*
X11834286Y-16567714D01*
X11805714Y-16553429D01*
X11791428Y-16539143D01*
X11777143Y-16510571D01*
X11762857Y-16453429D01*
X11762857Y-16382000D01*
X11777143Y-16324857D01*
X11791428Y-16296286D01*
X11805714Y-16282000D01*
X11834286Y-16267714D01*
X12191428Y-16367714D02*
X12191428Y-16567714D01*
X12120000Y-16253429D02*
X12048571Y-16467714D01*
X12234286Y-16467714D01*
X12320000Y-16267714D02*
X12520000Y-16267714D01*
X12391428Y-16567714D01*
X12620000Y-16296286D02*
X12634286Y-16282000D01*
X12662857Y-16267714D01*
X12734286Y-16267714D01*
X12762857Y-16282000D01*
X12777143Y-16296286D01*
X12791428Y-16324857D01*
X12791428Y-16353429D01*
X12777143Y-16396286D01*
X12605714Y-16567714D01*
X12791428Y-16567714D01*
X12905714Y-16267714D02*
X12905714Y-16324857D01*
X13020000Y-16267714D02*
X13020000Y-16324857D01*
X13462857Y-16682000D02*
X13448571Y-16667714D01*
X13420000Y-16624857D01*
X13405714Y-16596286D01*
X13391428Y-16553429D01*
X13377143Y-16482000D01*
X13377143Y-16424857D01*
X13391428Y-16353429D01*
X13405714Y-16310571D01*
X13420000Y-16282000D01*
X13448571Y-16239143D01*
X13462857Y-16224857D01*
X13705714Y-16367714D02*
X13705714Y-16567714D01*
X13634286Y-16253429D02*
X13562857Y-16467714D01*
X13748571Y-16467714D01*
X14091428Y-16567714D02*
X14091428Y-16267714D01*
X14220000Y-16567714D02*
X14220000Y-16410571D01*
X14205714Y-16382000D01*
X14177143Y-16367714D01*
X14134286Y-16367714D01*
X14105714Y-16382000D01*
X14091428Y-16396286D01*
X14405714Y-16567714D02*
X14377143Y-16553429D01*
X14362857Y-16539143D01*
X14348571Y-16510571D01*
X14348571Y-16424857D01*
X14362857Y-16396286D01*
X14377143Y-16382000D01*
X14405714Y-16367714D01*
X14448571Y-16367714D01*
X14477143Y-16382000D01*
X14491428Y-16396286D01*
X14505714Y-16424857D01*
X14505714Y-16510571D01*
X14491428Y-16539143D01*
X14477143Y-16553429D01*
X14448571Y-16567714D01*
X14405714Y-16567714D01*
X14677143Y-16567714D02*
X14648571Y-16553429D01*
X14634286Y-16524857D01*
X14634286Y-16267714D01*
X14905714Y-16553429D02*
X14877143Y-16567714D01*
X14820000Y-16567714D01*
X14791428Y-16553429D01*
X14777143Y-16524857D01*
X14777143Y-16410571D01*
X14791428Y-16382000D01*
X14820000Y-16367714D01*
X14877143Y-16367714D01*
X14905714Y-16382000D01*
X14920000Y-16410571D01*
X14920000Y-16439143D01*
X14777143Y-16467714D01*
X15034286Y-16553429D02*
X15062857Y-16567714D01*
X15120000Y-16567714D01*
X15148571Y-16553429D01*
X15162857Y-16524857D01*
X15162857Y-16510571D01*
X15148571Y-16482000D01*
X15120000Y-16467714D01*
X15077143Y-16467714D01*
X15048571Y-16453429D01*
X15034286Y-16424857D01*
X15034286Y-16410571D01*
X15048571Y-16382000D01*
X15077143Y-16367714D01*
X15120000Y-16367714D01*
X15148571Y-16382000D01*
X15262857Y-16682000D02*
X15277143Y-16667714D01*
X15305714Y-16624857D01*
X15320000Y-16596286D01*
X15334286Y-16553429D01*
X15348571Y-16482000D01*
X15348571Y-16424857D01*
X15334286Y-16353429D01*
X15320000Y-16310571D01*
X15305714Y-16282000D01*
X15277143Y-16239143D01*
X15262857Y-16224857D01*
X15805714Y-16682000D02*
X15791428Y-16667714D01*
X15762857Y-16624857D01*
X15748571Y-16596286D01*
X15734286Y-16553429D01*
X15720000Y-16482000D01*
X15720000Y-16424857D01*
X15734286Y-16353429D01*
X15748571Y-16310571D01*
X15762857Y-16282000D01*
X15791428Y-16239143D01*
X15805714Y-16224857D01*
X15920000Y-16367714D02*
X15920000Y-16567714D01*
X15920000Y-16396286D02*
X15934286Y-16382000D01*
X15962857Y-16367714D01*
X16005714Y-16367714D01*
X16034286Y-16382000D01*
X16048571Y-16410571D01*
X16048571Y-16567714D01*
X16234286Y-16567714D02*
X16205714Y-16553429D01*
X16191428Y-16539143D01*
X16177143Y-16510571D01*
X16177143Y-16424857D01*
X16191428Y-16396286D01*
X16205714Y-16382000D01*
X16234286Y-16367714D01*
X16277143Y-16367714D01*
X16305714Y-16382000D01*
X16320000Y-16396286D01*
X16334286Y-16424857D01*
X16334286Y-16510571D01*
X16320000Y-16539143D01*
X16305714Y-16553429D01*
X16277143Y-16567714D01*
X16234286Y-16567714D01*
X16420000Y-16367714D02*
X16534286Y-16367714D01*
X16462857Y-16267714D02*
X16462857Y-16524857D01*
X16477143Y-16553429D01*
X16505714Y-16567714D01*
X16534286Y-16567714D01*
X16862857Y-16367714D02*
X16862857Y-16667714D01*
X16862857Y-16382000D02*
X16891428Y-16367714D01*
X16948571Y-16367714D01*
X16977143Y-16382000D01*
X16991428Y-16396286D01*
X17005714Y-16424857D01*
X17005714Y-16510571D01*
X16991428Y-16539143D01*
X16977143Y-16553429D01*
X16948571Y-16567714D01*
X16891428Y-16567714D01*
X16862857Y-16553429D01*
X17177143Y-16567714D02*
X17148571Y-16553429D01*
X17134286Y-16524857D01*
X17134286Y-16267714D01*
X17420000Y-16567714D02*
X17420000Y-16410571D01*
X17405714Y-16382000D01*
X17377143Y-16367714D01*
X17320000Y-16367714D01*
X17291428Y-16382000D01*
X17420000Y-16553429D02*
X17391428Y-16567714D01*
X17320000Y-16567714D01*
X17291428Y-16553429D01*
X17277143Y-16524857D01*
X17277143Y-16496286D01*
X17291428Y-16467714D01*
X17320000Y-16453429D01*
X17391428Y-16453429D01*
X17420000Y-16439143D01*
X17520000Y-16367714D02*
X17634286Y-16367714D01*
X17562857Y-16267714D02*
X17562857Y-16524857D01*
X17577143Y-16553429D01*
X17605714Y-16567714D01*
X17634286Y-16567714D01*
X17848571Y-16553429D02*
X17820000Y-16567714D01*
X17762857Y-16567714D01*
X17734286Y-16553429D01*
X17720000Y-16524857D01*
X17720000Y-16410571D01*
X17734286Y-16382000D01*
X17762857Y-16367714D01*
X17820000Y-16367714D01*
X17848571Y-16382000D01*
X17862857Y-16410571D01*
X17862857Y-16439143D01*
X17720000Y-16467714D01*
X18120000Y-16567714D02*
X18120000Y-16267714D01*
X18120000Y-16553429D02*
X18091428Y-16567714D01*
X18034286Y-16567714D01*
X18005714Y-16553429D01*
X17991428Y-16539143D01*
X17977143Y-16510571D01*
X17977143Y-16424857D01*
X17991428Y-16396286D01*
X18005714Y-16382000D01*
X18034286Y-16367714D01*
X18091428Y-16367714D01*
X18120000Y-16382000D01*
X18234286Y-16682000D02*
X18248571Y-16667714D01*
X18277143Y-16624857D01*
X18291428Y-16596286D01*
X18305714Y-16553429D01*
X18320000Y-16482000D01*
X18320000Y-16424857D01*
X18305714Y-16353429D01*
X18291428Y-16310571D01*
X18277143Y-16282000D01*
X18248571Y-16239143D01*
X18234286Y-16224857D01*
X8178640Y-16891640D02*
X8178640Y-16764360D01*
X8051360Y-16764360D01*
X8051360Y-16891640D01*
X8178640Y-16891640D01*
X8648571Y-16963714D02*
X8477143Y-16963714D01*
X8562857Y-16963714D02*
X8562857Y-16663714D01*
X8534286Y-16706571D01*
X8505714Y-16735143D01*
X8477143Y-16749429D01*
X8777143Y-16935143D02*
X8791428Y-16949429D01*
X8777143Y-16963714D01*
X8762857Y-16949429D01*
X8777143Y-16935143D01*
X8777143Y-16963714D01*
X8962857Y-16792286D02*
X8934286Y-16778000D01*
X8920000Y-16763714D01*
X8905714Y-16735143D01*
X8905714Y-16720857D01*
X8920000Y-16692286D01*
X8934286Y-16678000D01*
X8962857Y-16663714D01*
X9020000Y-16663714D01*
X9048571Y-16678000D01*
X9062857Y-16692286D01*
X9077143Y-16720857D01*
X9077143Y-16735143D01*
X9062857Y-16763714D01*
X9048571Y-16778000D01*
X9020000Y-16792286D01*
X8962857Y-16792286D01*
X8934286Y-16806572D01*
X8920000Y-16820857D01*
X8905714Y-16849429D01*
X8905714Y-16906572D01*
X8920000Y-16935143D01*
X8934286Y-16949429D01*
X8962857Y-16963714D01*
X9020000Y-16963714D01*
X9048571Y-16949429D01*
X9062857Y-16935143D01*
X9077143Y-16906572D01*
X9077143Y-16849429D01*
X9062857Y-16820857D01*
X9048571Y-16806572D01*
X9020000Y-16792286D01*
X9262857Y-16663714D02*
X9291428Y-16663714D01*
X9320000Y-16678000D01*
X9334286Y-16692286D01*
X9348571Y-16720857D01*
X9362857Y-16778000D01*
X9362857Y-16849429D01*
X9348571Y-16906572D01*
X9334286Y-16935143D01*
X9320000Y-16949429D01*
X9291428Y-16963714D01*
X9262857Y-16963714D01*
X9234286Y-16949429D01*
X9220000Y-16935143D01*
X9205714Y-16906572D01*
X9191428Y-16849429D01*
X9191428Y-16778000D01*
X9205714Y-16720857D01*
X9220000Y-16692286D01*
X9234286Y-16678000D01*
X9262857Y-16663714D01*
X9548571Y-16663714D02*
X9577143Y-16663714D01*
X9605714Y-16678000D01*
X9620000Y-16692286D01*
X9634286Y-16720857D01*
X9648571Y-16778000D01*
X9648571Y-16849429D01*
X9634286Y-16906572D01*
X9620000Y-16935143D01*
X9605714Y-16949429D01*
X9577143Y-16963714D01*
X9548571Y-16963714D01*
X9520000Y-16949429D01*
X9505714Y-16935143D01*
X9491428Y-16906572D01*
X9477143Y-16849429D01*
X9477143Y-16778000D01*
X9491428Y-16720857D01*
X9505714Y-16692286D01*
X9520000Y-16678000D01*
X9548571Y-16663714D01*
X9777143Y-16963714D02*
X9777143Y-16763714D01*
X9777143Y-16792286D02*
X9791428Y-16778000D01*
X9820000Y-16763714D01*
X9862857Y-16763714D01*
X9891428Y-16778000D01*
X9905714Y-16806572D01*
X9905714Y-16963714D01*
X9905714Y-16806572D02*
X9920000Y-16778000D01*
X9948571Y-16763714D01*
X9991428Y-16763714D01*
X10020000Y-16778000D01*
X10034286Y-16806572D01*
X10034286Y-16963714D01*
X10177143Y-16963714D02*
X10177143Y-16763714D01*
X10177143Y-16792286D02*
X10191428Y-16778000D01*
X10220000Y-16763714D01*
X10262857Y-16763714D01*
X10291428Y-16778000D01*
X10305714Y-16806572D01*
X10305714Y-16963714D01*
X10305714Y-16806572D02*
X10320000Y-16778000D01*
X10348571Y-16763714D01*
X10391428Y-16763714D01*
X10420000Y-16778000D01*
X10434286Y-16806572D01*
X10434286Y-16963714D01*
X11020000Y-16649429D02*
X10762857Y-17035143D01*
X11405714Y-16663714D02*
X11434286Y-16663714D01*
X11462857Y-16678000D01*
X11477143Y-16692286D01*
X11491428Y-16720857D01*
X11505714Y-16778000D01*
X11505714Y-16849429D01*
X11491428Y-16906572D01*
X11477143Y-16935143D01*
X11462857Y-16949429D01*
X11434286Y-16963714D01*
X11405714Y-16963714D01*
X11377143Y-16949429D01*
X11362857Y-16935143D01*
X11348571Y-16906572D01*
X11334286Y-16849429D01*
X11334286Y-16778000D01*
X11348571Y-16720857D01*
X11362857Y-16692286D01*
X11377143Y-16678000D01*
X11405714Y-16663714D01*
X11634286Y-16935143D02*
X11648571Y-16949429D01*
X11634286Y-16963714D01*
X11620000Y-16949429D01*
X11634286Y-16935143D01*
X11634286Y-16963714D01*
X11834286Y-16663714D02*
X11862857Y-16663714D01*
X11891428Y-16678000D01*
X11905714Y-16692286D01*
X11920000Y-16720857D01*
X11934286Y-16778000D01*
X11934286Y-16849429D01*
X11920000Y-16906572D01*
X11905714Y-16935143D01*
X11891428Y-16949429D01*
X11862857Y-16963714D01*
X11834286Y-16963714D01*
X11805714Y-16949429D01*
X11791428Y-16935143D01*
X11777143Y-16906572D01*
X11762857Y-16849429D01*
X11762857Y-16778000D01*
X11777143Y-16720857D01*
X11791428Y-16692286D01*
X11805714Y-16678000D01*
X11834286Y-16663714D01*
X12034286Y-16663714D02*
X12234286Y-16663714D01*
X12105714Y-16963714D01*
X12405714Y-16663714D02*
X12434286Y-16663714D01*
X12462857Y-16678000D01*
X12477143Y-16692286D01*
X12491428Y-16720857D01*
X12505714Y-16778000D01*
X12505714Y-16849429D01*
X12491428Y-16906572D01*
X12477143Y-16935143D01*
X12462857Y-16949429D01*
X12434286Y-16963714D01*
X12405714Y-16963714D01*
X12377143Y-16949429D01*
X12362857Y-16935143D01*
X12348571Y-16906572D01*
X12334286Y-16849429D01*
X12334286Y-16778000D01*
X12348571Y-16720857D01*
X12362857Y-16692286D01*
X12377143Y-16678000D01*
X12405714Y-16663714D01*
X12648571Y-16963714D02*
X12705714Y-16963714D01*
X12734286Y-16949429D01*
X12748571Y-16935143D01*
X12777143Y-16892286D01*
X12791428Y-16835143D01*
X12791428Y-16720857D01*
X12777143Y-16692286D01*
X12762857Y-16678000D01*
X12734286Y-16663714D01*
X12677143Y-16663714D01*
X12648571Y-16678000D01*
X12634286Y-16692286D01*
X12620000Y-16720857D01*
X12620000Y-16792286D01*
X12634286Y-16820857D01*
X12648571Y-16835143D01*
X12677143Y-16849429D01*
X12734286Y-16849429D01*
X12762857Y-16835143D01*
X12777143Y-16820857D01*
X12791428Y-16792286D01*
X12905714Y-16663714D02*
X12905714Y-16720857D01*
X13020000Y-16663714D02*
X13020000Y-16720857D01*
X13462857Y-17078000D02*
X13448571Y-17063714D01*
X13420000Y-17020857D01*
X13405714Y-16992286D01*
X13391428Y-16949429D01*
X13377143Y-16878000D01*
X13377143Y-16820857D01*
X13391428Y-16749429D01*
X13405714Y-16706571D01*
X13420000Y-16678000D01*
X13448571Y-16635143D01*
X13462857Y-16620857D01*
X13705714Y-16663714D02*
X13648571Y-16663714D01*
X13620000Y-16678000D01*
X13605714Y-16692286D01*
X13577143Y-16735143D01*
X13562857Y-16792286D01*
X13562857Y-16906572D01*
X13577143Y-16935143D01*
X13591428Y-16949429D01*
X13620000Y-16963714D01*
X13677143Y-16963714D01*
X13705714Y-16949429D01*
X13720000Y-16935143D01*
X13734286Y-16906572D01*
X13734286Y-16835143D01*
X13720000Y-16806572D01*
X13705714Y-16792286D01*
X13677143Y-16778000D01*
X13620000Y-16778000D01*
X13591428Y-16792286D01*
X13577143Y-16806572D01*
X13562857Y-16835143D01*
X13905714Y-16792286D02*
X13877143Y-16778000D01*
X13862857Y-16763714D01*
X13848571Y-16735143D01*
X13848571Y-16720857D01*
X13862857Y-16692286D01*
X13877143Y-16678000D01*
X13905714Y-16663714D01*
X13962857Y-16663714D01*
X13991428Y-16678000D01*
X14005714Y-16692286D01*
X14020000Y-16720857D01*
X14020000Y-16735143D01*
X14005714Y-16763714D01*
X13991428Y-16778000D01*
X13962857Y-16792286D01*
X13905714Y-16792286D01*
X13877143Y-16806572D01*
X13862857Y-16820857D01*
X13848571Y-16849429D01*
X13848571Y-16906572D01*
X13862857Y-16935143D01*
X13877143Y-16949429D01*
X13905714Y-16963714D01*
X13962857Y-16963714D01*
X13991428Y-16949429D01*
X14005714Y-16935143D01*
X14020000Y-16906572D01*
X14020000Y-16849429D01*
X14005714Y-16820857D01*
X13991428Y-16806572D01*
X13962857Y-16792286D01*
X14377143Y-16963714D02*
X14377143Y-16663714D01*
X14505714Y-16963714D02*
X14505714Y-16806572D01*
X14491428Y-16778000D01*
X14462857Y-16763714D01*
X14420000Y-16763714D01*
X14391428Y-16778000D01*
X14377143Y-16792286D01*
X14691428Y-16963714D02*
X14662857Y-16949429D01*
X14648571Y-16935143D01*
X14634286Y-16906572D01*
X14634286Y-16820857D01*
X14648571Y-16792286D01*
X14662857Y-16778000D01*
X14691428Y-16763714D01*
X14734286Y-16763714D01*
X14762857Y-16778000D01*
X14777143Y-16792286D01*
X14791428Y-16820857D01*
X14791428Y-16906572D01*
X14777143Y-16935143D01*
X14762857Y-16949429D01*
X14734286Y-16963714D01*
X14691428Y-16963714D01*
X14962857Y-16963714D02*
X14934286Y-16949429D01*
X14920000Y-16920857D01*
X14920000Y-16663714D01*
X15191428Y-16949429D02*
X15162857Y-16963714D01*
X15105714Y-16963714D01*
X15077143Y-16949429D01*
X15062857Y-16920857D01*
X15062857Y-16806572D01*
X15077143Y-16778000D01*
X15105714Y-16763714D01*
X15162857Y-16763714D01*
X15191428Y-16778000D01*
X15205714Y-16806572D01*
X15205714Y-16835143D01*
X15062857Y-16863714D01*
X15320000Y-16949429D02*
X15348571Y-16963714D01*
X15405714Y-16963714D01*
X15434286Y-16949429D01*
X15448571Y-16920857D01*
X15448571Y-16906572D01*
X15434286Y-16878000D01*
X15405714Y-16863714D01*
X15362857Y-16863714D01*
X15334286Y-16849429D01*
X15320000Y-16820857D01*
X15320000Y-16806572D01*
X15334286Y-16778000D01*
X15362857Y-16763714D01*
X15405714Y-16763714D01*
X15434286Y-16778000D01*
X15548571Y-17078000D02*
X15562857Y-17063714D01*
X15591428Y-17020857D01*
X15605714Y-16992286D01*
X15620000Y-16949429D01*
X15634286Y-16878000D01*
X15634286Y-16820857D01*
X15620000Y-16749429D01*
X15605714Y-16706571D01*
X15591428Y-16678000D01*
X15562857Y-16635143D01*
X15548571Y-16620857D01*
X16091428Y-17078000D02*
X16077143Y-17063714D01*
X16048571Y-17020857D01*
X16034286Y-16992286D01*
X16020000Y-16949429D01*
X16005714Y-16878000D01*
X16005714Y-16820857D01*
X16020000Y-16749429D01*
X16034286Y-16706571D01*
X16048571Y-16678000D01*
X16077143Y-16635143D01*
X16091428Y-16620857D01*
X16205714Y-16763714D02*
X16205714Y-16963714D01*
X16205714Y-16792286D02*
X16220000Y-16778000D01*
X16248571Y-16763714D01*
X16291428Y-16763714D01*
X16320000Y-16778000D01*
X16334286Y-16806572D01*
X16334286Y-16963714D01*
X16520000Y-16963714D02*
X16491428Y-16949429D01*
X16477143Y-16935143D01*
X16462857Y-16906572D01*
X16462857Y-16820857D01*
X16477143Y-16792286D01*
X16491428Y-16778000D01*
X16520000Y-16763714D01*
X16562857Y-16763714D01*
X16591428Y-16778000D01*
X16605714Y-16792286D01*
X16620000Y-16820857D01*
X16620000Y-16906572D01*
X16605714Y-16935143D01*
X16591428Y-16949429D01*
X16562857Y-16963714D01*
X16520000Y-16963714D01*
X16705714Y-16763714D02*
X16820000Y-16763714D01*
X16748571Y-16663714D02*
X16748571Y-16920857D01*
X16762857Y-16949429D01*
X16791428Y-16963714D01*
X16820000Y-16963714D01*
X17148571Y-16763714D02*
X17148571Y-17063714D01*
X17148571Y-16778000D02*
X17177143Y-16763714D01*
X17234286Y-16763714D01*
X17262857Y-16778000D01*
X17277143Y-16792286D01*
X17291428Y-16820857D01*
X17291428Y-16906572D01*
X17277143Y-16935143D01*
X17262857Y-16949429D01*
X17234286Y-16963714D01*
X17177143Y-16963714D01*
X17148571Y-16949429D01*
X17462857Y-16963714D02*
X17434286Y-16949429D01*
X17420000Y-16920857D01*
X17420000Y-16663714D01*
X17705714Y-16963714D02*
X17705714Y-16806572D01*
X17691428Y-16778000D01*
X17662857Y-16763714D01*
X17605714Y-16763714D01*
X17577143Y-16778000D01*
X17705714Y-16949429D02*
X17677143Y-16963714D01*
X17605714Y-16963714D01*
X17577143Y-16949429D01*
X17562857Y-16920857D01*
X17562857Y-16892286D01*
X17577143Y-16863714D01*
X17605714Y-16849429D01*
X17677143Y-16849429D01*
X17705714Y-16835143D01*
X17805714Y-16763714D02*
X17920000Y-16763714D01*
X17848571Y-16663714D02*
X17848571Y-16920857D01*
X17862857Y-16949429D01*
X17891428Y-16963714D01*
X17920000Y-16963714D01*
X18134286Y-16949429D02*
X18105714Y-16963714D01*
X18048571Y-16963714D01*
X18020000Y-16949429D01*
X18005714Y-16920857D01*
X18005714Y-16806572D01*
X18020000Y-16778000D01*
X18048571Y-16763714D01*
X18105714Y-16763714D01*
X18134286Y-16778000D01*
X18148571Y-16806572D01*
X18148571Y-16835143D01*
X18005714Y-16863714D01*
X18405714Y-16963714D02*
X18405714Y-16663714D01*
X18405714Y-16949429D02*
X18377143Y-16963714D01*
X18320000Y-16963714D01*
X18291428Y-16949429D01*
X18277143Y-16935143D01*
X18262857Y-16906572D01*
X18262857Y-16820857D01*
X18277143Y-16792286D01*
X18291428Y-16778000D01*
X18320000Y-16763714D01*
X18377143Y-16763714D01*
X18405714Y-16778000D01*
X18520000Y-17078000D02*
X18534286Y-17063714D01*
X18562857Y-17020857D01*
X18577143Y-16992286D01*
X18591428Y-16949429D01*
X18605714Y-16878000D01*
X18605714Y-16820857D01*
X18591428Y-16749429D01*
X18577143Y-16706571D01*
X18562857Y-16678000D01*
X18534286Y-16635143D01*
X18520000Y-16620857D01*
X8055000Y-17374000D02*
X8205000Y-17224000D01*
X8055000Y-17074000D01*
X7905000Y-17224000D01*
X8055000Y-17374000D01*
X8462857Y-17059714D02*
X8648571Y-17059714D01*
X8548571Y-17174000D01*
X8591428Y-17174000D01*
X8620000Y-17188286D01*
X8634286Y-17202572D01*
X8648571Y-17231143D01*
X8648571Y-17302572D01*
X8634286Y-17331143D01*
X8620000Y-17345429D01*
X8591428Y-17359714D01*
X8505714Y-17359714D01*
X8477143Y-17345429D01*
X8462857Y-17331143D01*
X8777143Y-17331143D02*
X8791428Y-17345429D01*
X8777143Y-17359714D01*
X8762857Y-17345429D01*
X8777143Y-17331143D01*
X8777143Y-17359714D01*
X8977143Y-17059714D02*
X9005714Y-17059714D01*
X9034286Y-17074000D01*
X9048571Y-17088286D01*
X9062857Y-17116857D01*
X9077143Y-17174000D01*
X9077143Y-17245429D01*
X9062857Y-17302572D01*
X9048571Y-17331143D01*
X9034286Y-17345429D01*
X9005714Y-17359714D01*
X8977143Y-17359714D01*
X8948571Y-17345429D01*
X8934286Y-17331143D01*
X8920000Y-17302572D01*
X8905714Y-17245429D01*
X8905714Y-17174000D01*
X8920000Y-17116857D01*
X8934286Y-17088286D01*
X8948571Y-17074000D01*
X8977143Y-17059714D01*
X9262857Y-17059714D02*
X9291428Y-17059714D01*
X9320000Y-17074000D01*
X9334286Y-17088286D01*
X9348571Y-17116857D01*
X9362857Y-17174000D01*
X9362857Y-17245429D01*
X9348571Y-17302572D01*
X9334286Y-17331143D01*
X9320000Y-17345429D01*
X9291428Y-17359714D01*
X9262857Y-17359714D01*
X9234286Y-17345429D01*
X9220000Y-17331143D01*
X9205714Y-17302572D01*
X9191428Y-17245429D01*
X9191428Y-17174000D01*
X9205714Y-17116857D01*
X9220000Y-17088286D01*
X9234286Y-17074000D01*
X9262857Y-17059714D01*
X9548571Y-17059714D02*
X9577143Y-17059714D01*
X9605714Y-17074000D01*
X9620000Y-17088286D01*
X9634286Y-17116857D01*
X9648571Y-17174000D01*
X9648571Y-17245429D01*
X9634286Y-17302572D01*
X9620000Y-17331143D01*
X9605714Y-17345429D01*
X9577143Y-17359714D01*
X9548571Y-17359714D01*
X9520000Y-17345429D01*
X9505714Y-17331143D01*
X9491428Y-17302572D01*
X9477143Y-17245429D01*
X9477143Y-17174000D01*
X9491428Y-17116857D01*
X9505714Y-17088286D01*
X9520000Y-17074000D01*
X9548571Y-17059714D01*
X9777143Y-17359714D02*
X9777143Y-17159714D01*
X9777143Y-17188286D02*
X9791428Y-17174000D01*
X9820000Y-17159714D01*
X9862857Y-17159714D01*
X9891428Y-17174000D01*
X9905714Y-17202572D01*
X9905714Y-17359714D01*
X9905714Y-17202572D02*
X9920000Y-17174000D01*
X9948571Y-17159714D01*
X9991428Y-17159714D01*
X10020000Y-17174000D01*
X10034286Y-17202572D01*
X10034286Y-17359714D01*
X10177143Y-17359714D02*
X10177143Y-17159714D01*
X10177143Y-17188286D02*
X10191428Y-17174000D01*
X10220000Y-17159714D01*
X10262857Y-17159714D01*
X10291428Y-17174000D01*
X10305714Y-17202572D01*
X10305714Y-17359714D01*
X10305714Y-17202572D02*
X10320000Y-17174000D01*
X10348571Y-17159714D01*
X10391428Y-17159714D01*
X10420000Y-17174000D01*
X10434286Y-17202572D01*
X10434286Y-17359714D01*
X11020000Y-17045429D02*
X10762857Y-17431143D01*
X11405714Y-17059714D02*
X11434286Y-17059714D01*
X11462857Y-17074000D01*
X11477143Y-17088286D01*
X11491428Y-17116857D01*
X11505714Y-17174000D01*
X11505714Y-17245429D01*
X11491428Y-17302572D01*
X11477143Y-17331143D01*
X11462857Y-17345429D01*
X11434286Y-17359714D01*
X11405714Y-17359714D01*
X11377143Y-17345429D01*
X11362857Y-17331143D01*
X11348571Y-17302572D01*
X11334286Y-17245429D01*
X11334286Y-17174000D01*
X11348571Y-17116857D01*
X11362857Y-17088286D01*
X11377143Y-17074000D01*
X11405714Y-17059714D01*
X11634286Y-17331143D02*
X11648571Y-17345429D01*
X11634286Y-17359714D01*
X11620000Y-17345429D01*
X11634286Y-17331143D01*
X11634286Y-17359714D01*
X11934286Y-17359714D02*
X11762857Y-17359714D01*
X11848571Y-17359714D02*
X11848571Y-17059714D01*
X11820000Y-17102572D01*
X11791428Y-17131143D01*
X11762857Y-17145429D01*
X12220000Y-17359714D02*
X12048571Y-17359714D01*
X12134286Y-17359714D02*
X12134286Y-17059714D01*
X12105714Y-17102572D01*
X12077143Y-17131143D01*
X12048571Y-17145429D01*
X12391428Y-17188286D02*
X12362857Y-17174000D01*
X12348571Y-17159714D01*
X12334286Y-17131143D01*
X12334286Y-17116857D01*
X12348571Y-17088286D01*
X12362857Y-17074000D01*
X12391428Y-17059714D01*
X12448571Y-17059714D01*
X12477143Y-17074000D01*
X12491428Y-17088286D01*
X12505714Y-17116857D01*
X12505714Y-17131143D01*
X12491428Y-17159714D01*
X12477143Y-17174000D01*
X12448571Y-17188286D01*
X12391428Y-17188286D01*
X12362857Y-17202572D01*
X12348571Y-17216857D01*
X12334286Y-17245429D01*
X12334286Y-17302572D01*
X12348571Y-17331143D01*
X12362857Y-17345429D01*
X12391428Y-17359714D01*
X12448571Y-17359714D01*
X12477143Y-17345429D01*
X12491428Y-17331143D01*
X12505714Y-17302572D01*
X12505714Y-17245429D01*
X12491428Y-17216857D01*
X12477143Y-17202572D01*
X12448571Y-17188286D01*
X12791428Y-17359714D02*
X12620000Y-17359714D01*
X12705714Y-17359714D02*
X12705714Y-17059714D01*
X12677143Y-17102572D01*
X12648571Y-17131143D01*
X12620000Y-17145429D01*
X12905714Y-17059714D02*
X12905714Y-17116857D01*
X13020000Y-17059714D02*
X13020000Y-17116857D01*
X13462857Y-17474000D02*
X13448571Y-17459714D01*
X13420000Y-17416857D01*
X13405714Y-17388286D01*
X13391428Y-17345429D01*
X13377143Y-17274000D01*
X13377143Y-17216857D01*
X13391428Y-17145429D01*
X13405714Y-17102572D01*
X13420000Y-17074000D01*
X13448571Y-17031143D01*
X13462857Y-17016857D01*
X13734286Y-17359714D02*
X13562857Y-17359714D01*
X13648571Y-17359714D02*
X13648571Y-17059714D01*
X13620000Y-17102572D01*
X13591428Y-17131143D01*
X13562857Y-17145429D01*
X13920000Y-17059714D02*
X13948571Y-17059714D01*
X13977143Y-17074000D01*
X13991428Y-17088286D01*
X14005714Y-17116857D01*
X14020000Y-17174000D01*
X14020000Y-17245429D01*
X14005714Y-17302572D01*
X13991428Y-17331143D01*
X13977143Y-17345429D01*
X13948571Y-17359714D01*
X13920000Y-17359714D01*
X13891428Y-17345429D01*
X13877143Y-17331143D01*
X13862857Y-17302572D01*
X13848571Y-17245429D01*
X13848571Y-17174000D01*
X13862857Y-17116857D01*
X13877143Y-17088286D01*
X13891428Y-17074000D01*
X13920000Y-17059714D01*
X14134286Y-17088286D02*
X14148571Y-17074000D01*
X14177143Y-17059714D01*
X14248571Y-17059714D01*
X14277143Y-17074000D01*
X14291428Y-17088286D01*
X14305714Y-17116857D01*
X14305714Y-17145429D01*
X14291428Y-17188286D01*
X14120000Y-17359714D01*
X14305714Y-17359714D01*
X14662857Y-17359714D02*
X14662857Y-17059714D01*
X14791428Y-17359714D02*
X14791428Y-17202572D01*
X14777143Y-17174000D01*
X14748571Y-17159714D01*
X14705714Y-17159714D01*
X14677143Y-17174000D01*
X14662857Y-17188286D01*
X14977143Y-17359714D02*
X14948571Y-17345429D01*
X14934286Y-17331143D01*
X14920000Y-17302572D01*
X14920000Y-17216857D01*
X14934286Y-17188286D01*
X14948571Y-17174000D01*
X14977143Y-17159714D01*
X15020000Y-17159714D01*
X15048571Y-17174000D01*
X15062857Y-17188286D01*
X15077143Y-17216857D01*
X15077143Y-17302572D01*
X15062857Y-17331143D01*
X15048571Y-17345429D01*
X15020000Y-17359714D01*
X14977143Y-17359714D01*
X15248571Y-17359714D02*
X15220000Y-17345429D01*
X15205714Y-17316857D01*
X15205714Y-17059714D01*
X15477143Y-17345429D02*
X15448571Y-17359714D01*
X15391428Y-17359714D01*
X15362857Y-17345429D01*
X15348571Y-17316857D01*
X15348571Y-17202572D01*
X15362857Y-17174000D01*
X15391428Y-17159714D01*
X15448571Y-17159714D01*
X15477143Y-17174000D01*
X15491428Y-17202572D01*
X15491428Y-17231143D01*
X15348571Y-17259714D01*
X15605714Y-17345429D02*
X15634286Y-17359714D01*
X15691428Y-17359714D01*
X15720000Y-17345429D01*
X15734286Y-17316857D01*
X15734286Y-17302572D01*
X15720000Y-17274000D01*
X15691428Y-17259714D01*
X15648571Y-17259714D01*
X15620000Y-17245429D01*
X15605714Y-17216857D01*
X15605714Y-17202572D01*
X15620000Y-17174000D01*
X15648571Y-17159714D01*
X15691428Y-17159714D01*
X15720000Y-17174000D01*
X15834286Y-17474000D02*
X15848571Y-17459714D01*
X15877143Y-17416857D01*
X15891428Y-17388286D01*
X15905714Y-17345429D01*
X15920000Y-17274000D01*
X15920000Y-17216857D01*
X15905714Y-17145429D01*
X15891428Y-17102572D01*
X15877143Y-17074000D01*
X15848571Y-17031143D01*
X15834286Y-17016857D01*
X16377143Y-17474000D02*
X16362857Y-17459714D01*
X16334286Y-17416857D01*
X16320000Y-17388286D01*
X16305714Y-17345429D01*
X16291428Y-17274000D01*
X16291428Y-17216857D01*
X16305714Y-17145429D01*
X16320000Y-17102572D01*
X16334286Y-17074000D01*
X16362857Y-17031143D01*
X16377143Y-17016857D01*
X16491428Y-17159714D02*
X16491428Y-17359714D01*
X16491428Y-17188286D02*
X16505714Y-17174000D01*
X16534286Y-17159714D01*
X16577143Y-17159714D01*
X16605714Y-17174000D01*
X16620000Y-17202572D01*
X16620000Y-17359714D01*
X16805714Y-17359714D02*
X16777143Y-17345429D01*
X16762857Y-17331143D01*
X16748571Y-17302572D01*
X16748571Y-17216857D01*
X16762857Y-17188286D01*
X16777143Y-17174000D01*
X16805714Y-17159714D01*
X16848571Y-17159714D01*
X16877143Y-17174000D01*
X16891428Y-17188286D01*
X16905714Y-17216857D01*
X16905714Y-17302572D01*
X16891428Y-17331143D01*
X16877143Y-17345429D01*
X16848571Y-17359714D01*
X16805714Y-17359714D01*
X16991428Y-17159714D02*
X17105714Y-17159714D01*
X17034286Y-17059714D02*
X17034286Y-17316857D01*
X17048571Y-17345429D01*
X17077143Y-17359714D01*
X17105714Y-17359714D01*
X17434286Y-17159714D02*
X17434286Y-17459714D01*
X17434286Y-17174000D02*
X17462857Y-17159714D01*
X17520000Y-17159714D01*
X17548571Y-17174000D01*
X17562857Y-17188286D01*
X17577143Y-17216857D01*
X17577143Y-17302572D01*
X17562857Y-17331143D01*
X17548571Y-17345429D01*
X17520000Y-17359714D01*
X17462857Y-17359714D01*
X17434286Y-17345429D01*
X17748571Y-17359714D02*
X17720000Y-17345429D01*
X17705714Y-17316857D01*
X17705714Y-17059714D01*
X17991428Y-17359714D02*
X17991428Y-17202572D01*
X17977143Y-17174000D01*
X17948571Y-17159714D01*
X17891428Y-17159714D01*
X17862857Y-17174000D01*
X17991428Y-17345429D02*
X17962857Y-17359714D01*
X17891428Y-17359714D01*
X17862857Y-17345429D01*
X17848571Y-17316857D01*
X17848571Y-17288286D01*
X17862857Y-17259714D01*
X17891428Y-17245429D01*
X17962857Y-17245429D01*
X17991428Y-17231143D01*
X18091428Y-17159714D02*
X18205714Y-17159714D01*
X18134286Y-17059714D02*
X18134286Y-17316857D01*
X18148571Y-17345429D01*
X18177143Y-17359714D01*
X18205714Y-17359714D01*
X18420000Y-17345429D02*
X18391428Y-17359714D01*
X18334286Y-17359714D01*
X18305714Y-17345429D01*
X18291428Y-17316857D01*
X18291428Y-17202572D01*
X18305714Y-17174000D01*
X18334286Y-17159714D01*
X18391428Y-17159714D01*
X18420000Y-17174000D01*
X18434286Y-17202572D01*
X18434286Y-17231143D01*
X18291428Y-17259714D01*
X18691428Y-17359714D02*
X18691428Y-17059714D01*
X18691428Y-17345429D02*
X18662857Y-17359714D01*
X18605714Y-17359714D01*
X18577143Y-17345429D01*
X18562857Y-17331143D01*
X18548571Y-17302572D01*
X18548571Y-17216857D01*
X18562857Y-17188286D01*
X18577143Y-17174000D01*
X18605714Y-17159714D01*
X18662857Y-17159714D01*
X18691428Y-17174000D01*
X18805714Y-17474000D02*
X18820000Y-17459714D01*
X18848571Y-17416857D01*
X18862857Y-17388286D01*
X18877143Y-17345429D01*
X18891428Y-17274000D01*
X18891428Y-17216857D01*
X18877143Y-17145429D01*
X18862857Y-17102572D01*
X18848571Y-17074000D01*
X18820000Y-17031143D01*
X18805714Y-17016857D01*
X7865000Y-17484000D02*
X8205000Y-17824000D01*
X8205000Y-17484000D02*
X7865000Y-17824000D01*
X8205000Y-17654000D02*
G75*
G03*
X8205000Y-17654000I-170000J0D01*
G01*
X8462857Y-17489714D02*
X8648571Y-17489714D01*
X8548571Y-17604000D01*
X8591428Y-17604000D01*
X8620000Y-17618286D01*
X8634286Y-17632572D01*
X8648571Y-17661143D01*
X8648571Y-17732572D01*
X8634286Y-17761143D01*
X8620000Y-17775429D01*
X8591428Y-17789714D01*
X8505714Y-17789714D01*
X8477143Y-17775429D01*
X8462857Y-17761143D01*
X8777143Y-17761143D02*
X8791428Y-17775429D01*
X8777143Y-17789714D01*
X8762857Y-17775429D01*
X8777143Y-17761143D01*
X8777143Y-17789714D01*
X9048571Y-17589714D02*
X9048571Y-17789714D01*
X8977143Y-17475429D02*
X8905714Y-17689714D01*
X9091428Y-17689714D01*
X9262857Y-17489714D02*
X9291428Y-17489714D01*
X9320000Y-17504000D01*
X9334286Y-17518286D01*
X9348571Y-17546857D01*
X9362857Y-17604000D01*
X9362857Y-17675429D01*
X9348571Y-17732572D01*
X9334286Y-17761143D01*
X9320000Y-17775429D01*
X9291428Y-17789714D01*
X9262857Y-17789714D01*
X9234286Y-17775429D01*
X9220000Y-17761143D01*
X9205714Y-17732572D01*
X9191428Y-17675429D01*
X9191428Y-17604000D01*
X9205714Y-17546857D01*
X9220000Y-17518286D01*
X9234286Y-17504000D01*
X9262857Y-17489714D01*
X9548571Y-17489714D02*
X9577143Y-17489714D01*
X9605714Y-17504000D01*
X9620000Y-17518286D01*
X9634286Y-17546857D01*
X9648571Y-17604000D01*
X9648571Y-17675429D01*
X9634286Y-17732572D01*
X9620000Y-17761143D01*
X9605714Y-17775429D01*
X9577143Y-17789714D01*
X9548571Y-17789714D01*
X9520000Y-17775429D01*
X9505714Y-17761143D01*
X9491428Y-17732572D01*
X9477143Y-17675429D01*
X9477143Y-17604000D01*
X9491428Y-17546857D01*
X9505714Y-17518286D01*
X9520000Y-17504000D01*
X9548571Y-17489714D01*
X9777143Y-17789714D02*
X9777143Y-17589714D01*
X9777143Y-17618286D02*
X9791428Y-17604000D01*
X9820000Y-17589714D01*
X9862857Y-17589714D01*
X9891428Y-17604000D01*
X9905714Y-17632572D01*
X9905714Y-17789714D01*
X9905714Y-17632572D02*
X9920000Y-17604000D01*
X9948571Y-17589714D01*
X9991428Y-17589714D01*
X10020000Y-17604000D01*
X10034286Y-17632572D01*
X10034286Y-17789714D01*
X10177143Y-17789714D02*
X10177143Y-17589714D01*
X10177143Y-17618286D02*
X10191428Y-17604000D01*
X10220000Y-17589714D01*
X10262857Y-17589714D01*
X10291428Y-17604000D01*
X10305714Y-17632572D01*
X10305714Y-17789714D01*
X10305714Y-17632572D02*
X10320000Y-17604000D01*
X10348571Y-17589714D01*
X10391428Y-17589714D01*
X10420000Y-17604000D01*
X10434286Y-17632572D01*
X10434286Y-17789714D01*
X11020000Y-17475429D02*
X10762857Y-17861143D01*
X11405714Y-17489714D02*
X11434286Y-17489714D01*
X11462857Y-17504000D01*
X11477143Y-17518286D01*
X11491428Y-17546857D01*
X11505714Y-17604000D01*
X11505714Y-17675429D01*
X11491428Y-17732572D01*
X11477143Y-17761143D01*
X11462857Y-17775429D01*
X11434286Y-17789714D01*
X11405714Y-17789714D01*
X11377143Y-17775429D01*
X11362857Y-17761143D01*
X11348571Y-17732572D01*
X11334286Y-17675429D01*
X11334286Y-17604000D01*
X11348571Y-17546857D01*
X11362857Y-17518286D01*
X11377143Y-17504000D01*
X11405714Y-17489714D01*
X11634286Y-17761143D02*
X11648571Y-17775429D01*
X11634286Y-17789714D01*
X11620000Y-17775429D01*
X11634286Y-17761143D01*
X11634286Y-17789714D01*
X11934286Y-17789714D02*
X11762857Y-17789714D01*
X11848571Y-17789714D02*
X11848571Y-17489714D01*
X11820000Y-17532572D01*
X11791428Y-17561143D01*
X11762857Y-17575429D01*
X12034286Y-17489714D02*
X12220000Y-17489714D01*
X12120000Y-17604000D01*
X12162857Y-17604000D01*
X12191428Y-17618286D01*
X12205714Y-17632572D01*
X12220000Y-17661143D01*
X12220000Y-17732572D01*
X12205714Y-17761143D01*
X12191428Y-17775429D01*
X12162857Y-17789714D01*
X12077143Y-17789714D01*
X12048571Y-17775429D01*
X12034286Y-17761143D01*
X12320000Y-17489714D02*
X12505714Y-17489714D01*
X12405714Y-17604000D01*
X12448571Y-17604000D01*
X12477143Y-17618286D01*
X12491428Y-17632572D01*
X12505714Y-17661143D01*
X12505714Y-17732572D01*
X12491428Y-17761143D01*
X12477143Y-17775429D01*
X12448571Y-17789714D01*
X12362857Y-17789714D01*
X12334286Y-17775429D01*
X12320000Y-17761143D01*
X12648571Y-17789714D02*
X12705714Y-17789714D01*
X12734286Y-17775429D01*
X12748571Y-17761143D01*
X12777143Y-17718286D01*
X12791428Y-17661143D01*
X12791428Y-17546857D01*
X12777143Y-17518286D01*
X12762857Y-17504000D01*
X12734286Y-17489714D01*
X12677143Y-17489714D01*
X12648571Y-17504000D01*
X12634286Y-17518286D01*
X12620000Y-17546857D01*
X12620000Y-17618286D01*
X12634286Y-17646857D01*
X12648571Y-17661143D01*
X12677143Y-17675429D01*
X12734286Y-17675429D01*
X12762857Y-17661143D01*
X12777143Y-17646857D01*
X12791428Y-17618286D01*
X12905714Y-17489714D02*
X12905714Y-17546857D01*
X13020000Y-17489714D02*
X13020000Y-17546857D01*
X13462857Y-17904000D02*
X13448571Y-17889714D01*
X13420000Y-17846857D01*
X13405714Y-17818286D01*
X13391428Y-17775429D01*
X13377143Y-17704000D01*
X13377143Y-17646857D01*
X13391428Y-17575429D01*
X13405714Y-17532572D01*
X13420000Y-17504000D01*
X13448571Y-17461143D01*
X13462857Y-17446857D01*
X13548571Y-17489714D02*
X13734286Y-17489714D01*
X13634286Y-17604000D01*
X13677143Y-17604000D01*
X13705714Y-17618286D01*
X13720000Y-17632572D01*
X13734286Y-17661143D01*
X13734286Y-17732572D01*
X13720000Y-17761143D01*
X13705714Y-17775429D01*
X13677143Y-17789714D01*
X13591428Y-17789714D01*
X13562857Y-17775429D01*
X13548571Y-17761143D01*
X13991428Y-17589714D02*
X13991428Y-17789714D01*
X13920000Y-17475429D02*
X13848571Y-17689714D01*
X14034286Y-17689714D01*
X14377143Y-17789714D02*
X14377143Y-17489714D01*
X14505714Y-17789714D02*
X14505714Y-17632572D01*
X14491428Y-17604000D01*
X14462857Y-17589714D01*
X14420000Y-17589714D01*
X14391428Y-17604000D01*
X14377143Y-17618286D01*
X14691428Y-17789714D02*
X14662857Y-17775429D01*
X14648571Y-17761143D01*
X14634286Y-17732572D01*
X14634286Y-17646857D01*
X14648571Y-17618286D01*
X14662857Y-17604000D01*
X14691428Y-17589714D01*
X14734286Y-17589714D01*
X14762857Y-17604000D01*
X14777143Y-17618286D01*
X14791428Y-17646857D01*
X14791428Y-17732572D01*
X14777143Y-17761143D01*
X14762857Y-17775429D01*
X14734286Y-17789714D01*
X14691428Y-17789714D01*
X14962857Y-17789714D02*
X14934286Y-17775429D01*
X14920000Y-17746857D01*
X14920000Y-17489714D01*
X15191428Y-17775429D02*
X15162857Y-17789714D01*
X15105714Y-17789714D01*
X15077143Y-17775429D01*
X15062857Y-17746857D01*
X15062857Y-17632572D01*
X15077143Y-17604000D01*
X15105714Y-17589714D01*
X15162857Y-17589714D01*
X15191428Y-17604000D01*
X15205714Y-17632572D01*
X15205714Y-17661143D01*
X15062857Y-17689714D01*
X15320000Y-17775429D02*
X15348571Y-17789714D01*
X15405714Y-17789714D01*
X15434286Y-17775429D01*
X15448571Y-17746857D01*
X15448571Y-17732572D01*
X15434286Y-17704000D01*
X15405714Y-17689714D01*
X15362857Y-17689714D01*
X15334286Y-17675429D01*
X15320000Y-17646857D01*
X15320000Y-17632572D01*
X15334286Y-17604000D01*
X15362857Y-17589714D01*
X15405714Y-17589714D01*
X15434286Y-17604000D01*
X15548571Y-17904000D02*
X15562857Y-17889714D01*
X15591428Y-17846857D01*
X15605714Y-17818286D01*
X15620000Y-17775429D01*
X15634286Y-17704000D01*
X15634286Y-17646857D01*
X15620000Y-17575429D01*
X15605714Y-17532572D01*
X15591428Y-17504000D01*
X15562857Y-17461143D01*
X15548571Y-17446857D01*
X16091428Y-17904000D02*
X16077143Y-17889714D01*
X16048571Y-17846857D01*
X16034286Y-17818286D01*
X16020000Y-17775429D01*
X16005714Y-17704000D01*
X16005714Y-17646857D01*
X16020000Y-17575429D01*
X16034286Y-17532572D01*
X16048571Y-17504000D01*
X16077143Y-17461143D01*
X16091428Y-17446857D01*
X16205714Y-17589714D02*
X16205714Y-17789714D01*
X16205714Y-17618286D02*
X16220000Y-17604000D01*
X16248571Y-17589714D01*
X16291428Y-17589714D01*
X16320000Y-17604000D01*
X16334286Y-17632572D01*
X16334286Y-17789714D01*
X16520000Y-17789714D02*
X16491428Y-17775429D01*
X16477143Y-17761143D01*
X16462857Y-17732572D01*
X16462857Y-17646857D01*
X16477143Y-17618286D01*
X16491428Y-17604000D01*
X16520000Y-17589714D01*
X16562857Y-17589714D01*
X16591428Y-17604000D01*
X16605714Y-17618286D01*
X16620000Y-17646857D01*
X16620000Y-17732572D01*
X16605714Y-17761143D01*
X16591428Y-17775429D01*
X16562857Y-17789714D01*
X16520000Y-17789714D01*
X16705714Y-17589714D02*
X16820000Y-17589714D01*
X16748571Y-17489714D02*
X16748571Y-17746857D01*
X16762857Y-17775429D01*
X16791428Y-17789714D01*
X16820000Y-17789714D01*
X17148571Y-17589714D02*
X17148571Y-17889714D01*
X17148571Y-17604000D02*
X17177143Y-17589714D01*
X17234286Y-17589714D01*
X17262857Y-17604000D01*
X17277143Y-17618286D01*
X17291428Y-17646857D01*
X17291428Y-17732572D01*
X17277143Y-17761143D01*
X17262857Y-17775429D01*
X17234286Y-17789714D01*
X17177143Y-17789714D01*
X17148571Y-17775429D01*
X17462857Y-17789714D02*
X17434286Y-17775429D01*
X17420000Y-17746857D01*
X17420000Y-17489714D01*
X17705714Y-17789714D02*
X17705714Y-17632572D01*
X17691428Y-17604000D01*
X17662857Y-17589714D01*
X17605714Y-17589714D01*
X17577143Y-17604000D01*
X17705714Y-17775429D02*
X17677143Y-17789714D01*
X17605714Y-17789714D01*
X17577143Y-17775429D01*
X17562857Y-17746857D01*
X17562857Y-17718286D01*
X17577143Y-17689714D01*
X17605714Y-17675429D01*
X17677143Y-17675429D01*
X17705714Y-17661143D01*
X17805714Y-17589714D02*
X17920000Y-17589714D01*
X17848571Y-17489714D02*
X17848571Y-17746857D01*
X17862857Y-17775429D01*
X17891428Y-17789714D01*
X17920000Y-17789714D01*
X18134286Y-17775429D02*
X18105714Y-17789714D01*
X18048571Y-17789714D01*
X18020000Y-17775429D01*
X18005714Y-17746857D01*
X18005714Y-17632572D01*
X18020000Y-17604000D01*
X18048571Y-17589714D01*
X18105714Y-17589714D01*
X18134286Y-17604000D01*
X18148571Y-17632572D01*
X18148571Y-17661143D01*
X18005714Y-17689714D01*
X18405714Y-17789714D02*
X18405714Y-17489714D01*
X18405714Y-17775429D02*
X18377143Y-17789714D01*
X18320000Y-17789714D01*
X18291428Y-17775429D01*
X18277143Y-17761143D01*
X18262857Y-17732572D01*
X18262857Y-17646857D01*
X18277143Y-17618286D01*
X18291428Y-17604000D01*
X18320000Y-17589714D01*
X18377143Y-17589714D01*
X18405714Y-17604000D01*
X18520000Y-17904000D02*
X18534286Y-17889714D01*
X18562857Y-17846857D01*
X18577143Y-17818286D01*
X18591428Y-17775429D01*
X18605714Y-17704000D01*
X18605714Y-17646857D01*
X18591428Y-17575429D01*
X18577143Y-17532572D01*
X18562857Y-17504000D01*
X18534286Y-17461143D01*
X18520000Y-17446857D01*
M02*
