M48
; DRILL file {KiCad 5.1.10-88a1d61d58~90~ubuntu20.04.1} date Tue Jan 18 13:39:49 2022
; FORMAT={-:-/ absolute / metric / decimal}
; #@! TF.CreationDate,2022-01-18T13:39:49+02:00
; #@! TF.GenerationSoftware,Kicad,Pcbnew,5.1.10-88a1d61d58~90~ubuntu20.04.1
; #@! TF.FileFunction,NonPlated,1,2,NPTH
FMAT,2
METRIC
T1C0.394
T2C1.000
T3C1.200
T4C1.800
T5C3.000
T6C3.400
%
G90
G05
T1
X225.523Y-46.271
X225.523Y-47.287
X225.523Y-48.303
X225.523Y-54.399
X225.523Y-55.415
X225.523Y-56.431
X225.523Y-57.447
X225.523Y-58.463
X225.523Y-84.371
X225.523Y-86.403
X225.523Y-87.419
X225.523Y-120.185
X225.523Y-121.201
X225.523Y-122.725
X225.523Y-130.345
X225.523Y-131.869
X225.523Y-133.139
X235.175Y-117.899
X242.541Y-117.899
X244.065Y-117.899
T2
X97.737Y-126.779
X102.957Y-135.821
X111.471Y-125.694
X115.33Y-45.8
X115.33Y-64.9
X115.33Y-83.9
X115.33Y-102.95
X121.555Y-122.992
X125.77Y-45.8
X125.77Y-64.9
X125.77Y-83.9
X125.77Y-102.95
X134.38Y-43.3
X134.38Y-62.35
X134.38Y-81.4
X134.38Y-100.45
X134.38Y-119.5
X144.82Y-43.3
X144.82Y-62.35
X144.82Y-81.4
X144.82Y-100.45
X144.82Y-119.5
X153.43Y-40.8
X153.43Y-59.85
X153.43Y-78.9
X153.43Y-97.95
X153.43Y-117.0
X163.87Y-40.8
X163.87Y-59.85
X163.87Y-78.9
X163.87Y-97.95
X163.87Y-117.0
X172.48Y-43.3
X172.48Y-62.35
X172.48Y-81.4
X172.48Y-100.45
X172.48Y-119.5
X182.92Y-43.3
X182.92Y-62.35
X182.92Y-81.4
X182.92Y-100.45
X182.92Y-119.5
X191.53Y-48.2
X191.53Y-67.25
X191.53Y-86.3
X191.53Y-105.35
X191.53Y-124.4
X201.97Y-48.2
X201.97Y-67.25
X201.97Y-86.3
X201.97Y-105.35
X201.97Y-124.4
X210.58Y-48.2
X210.58Y-67.25
X210.58Y-86.3
X210.58Y-105.35
X210.58Y-124.4
X221.02Y-48.2
X221.02Y-67.25
X221.02Y-86.3
X221.02Y-105.35
X221.02Y-124.4
X229.63Y-124.4
X230.65Y-56.705
X230.65Y-67.145
X230.65Y-94.805
X230.65Y-105.245
X240.07Y-124.4
T3
X89.5Y-85.65
X89.5Y-87.4
X96.5Y-85.65
X96.5Y-87.4
T4
X93.96Y-128.637
X99.46Y-138.163
X112.287Y-129.824
X115.05Y-50.0
X115.05Y-69.1
X115.05Y-88.1
X115.05Y-107.15
X122.913Y-126.976
X126.05Y-50.0
X126.05Y-69.1
X126.05Y-88.1
X126.05Y-107.15
X134.1Y-47.5
X134.1Y-66.55
X134.1Y-85.6
X134.1Y-104.65
X134.1Y-123.7
X145.1Y-47.5
X145.1Y-66.55
X145.1Y-85.6
X145.1Y-104.65
X145.1Y-123.7
X153.15Y-45.0
X153.15Y-64.05
X153.15Y-83.1
X153.15Y-102.15
X153.15Y-121.2
X164.15Y-45.0
X164.15Y-64.05
X164.15Y-83.1
X164.15Y-102.15
X164.15Y-121.2
X172.2Y-47.5
X172.2Y-66.55
X172.2Y-85.6
X172.2Y-104.65
X172.2Y-123.7
X183.2Y-47.5
X183.2Y-66.55
X183.2Y-85.6
X183.2Y-104.65
X183.2Y-123.7
X191.25Y-52.4
X191.25Y-71.45
X191.25Y-90.5
X191.25Y-109.55
X191.25Y-128.6
X202.25Y-52.4
X202.25Y-71.45
X202.25Y-90.5
X202.25Y-109.55
X202.25Y-128.6
X210.3Y-52.4
X210.3Y-71.45
X210.3Y-90.5
X210.3Y-109.55
X210.3Y-128.6
X221.3Y-52.4
X221.3Y-71.45
X221.3Y-90.5
X221.3Y-109.55
X221.3Y-128.6
X229.35Y-128.6
X234.85Y-56.425
X234.85Y-67.425
X234.85Y-94.525
X234.85Y-105.525
X240.35Y-128.6
T5
X91.006Y-130.92
X91.6Y-136.35
X96.006Y-139.58
X113.728Y-133.268
X115.55Y-53.7
X115.55Y-72.8
X115.55Y-91.8
X115.55Y-110.85
X119.127Y-134.099
X120.55Y-55.9
X120.55Y-75.0
X120.55Y-94.0
X120.55Y-113.05
X123.387Y-130.68
X125.55Y-53.7
X125.55Y-72.8
X125.55Y-91.8
X125.55Y-110.85
X134.6Y-51.2
X134.6Y-70.25
X134.6Y-89.3
X134.6Y-108.35
X134.6Y-127.4
X139.6Y-53.4
X139.6Y-72.45
X139.6Y-91.5
X139.6Y-110.55
X139.6Y-129.6
X144.6Y-51.2
X144.6Y-70.25
X144.6Y-89.3
X144.6Y-108.35
X144.6Y-127.4
X153.65Y-48.7
X153.65Y-67.75
X153.65Y-86.8
X153.65Y-105.85
X153.65Y-124.9
X158.65Y-50.9
X158.65Y-69.95
X158.65Y-89.0
X158.65Y-108.05
X158.65Y-127.1
X163.65Y-48.7
X163.65Y-67.75
X163.65Y-86.8
X163.65Y-105.85
X163.65Y-124.9
X172.7Y-51.2
X172.7Y-70.25
X172.7Y-89.3
X172.7Y-108.35
X172.7Y-127.4
X177.7Y-53.4
X177.7Y-72.45
X177.7Y-91.5
X177.7Y-110.55
X177.7Y-129.6
X182.7Y-51.2
X182.7Y-70.25
X182.7Y-89.3
X182.7Y-108.35
X182.7Y-127.4
X191.75Y-56.1
X191.75Y-75.15
X191.75Y-94.2
X191.75Y-113.25
X191.75Y-132.3
X196.75Y-58.3
X196.75Y-77.35
X196.75Y-96.4
X196.75Y-115.45
X196.75Y-134.5
X201.75Y-56.1
X201.75Y-75.15
X201.75Y-94.2
X201.75Y-113.25
X201.75Y-132.3
X210.8Y-56.1
X210.8Y-75.15
X210.8Y-94.2
X210.8Y-113.25
X210.8Y-132.3
X215.8Y-58.3
X215.8Y-77.35
X215.8Y-96.4
X215.8Y-115.45
X215.8Y-134.5
X220.8Y-56.1
X220.8Y-75.15
X220.8Y-94.2
X220.8Y-113.25
X220.8Y-132.3
X229.85Y-132.3
X234.85Y-134.5
X238.55Y-56.925
X238.55Y-66.925
X238.55Y-95.025
X238.55Y-105.025
X239.85Y-132.3
X240.75Y-61.925
X240.75Y-100.025
T6
X96.71Y-133.4
X117.6Y-128.4
X120.55Y-50.0
X120.55Y-69.1
X120.55Y-88.1
X120.55Y-107.15
X139.6Y-47.5
X139.6Y-66.55
X139.6Y-85.6
X139.6Y-104.65
X139.6Y-123.7
X158.65Y-45.0
X158.65Y-64.05
X158.65Y-83.1
X158.65Y-102.15
X158.65Y-121.2
X177.7Y-47.5
X177.7Y-66.55
X177.7Y-85.6
X177.7Y-104.65
X177.7Y-123.7
X196.75Y-52.4
X196.75Y-71.45
X196.75Y-90.5
X196.75Y-109.55
X196.75Y-128.6
X215.8Y-52.4
X215.8Y-71.45
X215.8Y-90.5
X215.8Y-109.55
X215.8Y-128.6
X234.85Y-61.925
X234.85Y-100.025
X234.85Y-128.6
T0
M30
